<?xml version="1.0" encoding="UTF-8"?>
<!DOCTYPE svg PUBLIC "-//W3C//DTD SVG 1.1//EN" "http://www.w3.org/Graphics/SVG/1.1/DTD/svg11.dtd">
<svg xmlns="http://www.w3.org/2000/svg" version="1.1" width="192px" height="192px" style="shape-rendering:geometricPrecision; text-rendering:geometricPrecision; image-rendering:optimizeQuality; fill-rule:evenodd; clip-rule:evenodd" xmlns:xlink="http://www.w3.org/1999/xlink">
<g><path style="opacity:1" fill="#9abec4" d="M 37.5,-0.5 C 46.5,-0.5 55.5,-0.5 64.5,-0.5C 65.531,0.248534 66.6976,0.915201 68,1.5C 73.3436,0.721227 78.177,2.22123 82.5,6C 81.552,6.48278 80.552,6.64945 79.5,6.5C 79.6198,9.20485 78.6198,9.87151 76.5,8.5C 75.6143,9.32496 75.281,10.325 75.5,11.5C 74.448,11.3505 73.448,11.5172 72.5,12C 76.8379,15.8621 75.8379,19.3621 69.5,22.5C 69.7093,23.086 70.0426,23.586 70.5,24C 64.6518,24.1728 58.9851,24.6728 53.5,25.5C 42.9022,26.4597 34.9022,31.4597 29.5,40.5C 25.6935,39.9685 21.6935,39.9685 17.5,40.5C 17.3433,39.1266 17.51,37.7932 18,36.5C 24.3912,29.5826 32.2245,25.0826 41.5,23C 39.1902,22.5034 36.8568,22.3367 34.5,22.5C 31.5176,22.9629 28.5176,23.2962 25.5,23.5C 25.3118,21.8967 25.8118,20.5634 27,19.5C 30.7218,20.8023 33.0551,19.469 34,15.5C 34.7175,16.4506 35.5509,16.6172 36.5,16C 35.3507,14.3963 35.3507,12.7297 36.5,11C 38.2423,8.29766 40.5757,6.29766 43.5,5C 44.0606,3.43446 43.3939,2.10113 41.5,1C 39.9419,0.78997 38.6085,0.28997 37.5,-0.5 Z"/></g>
<g><path style="opacity:1" fill="#86adb6" d="M 96.5,-0.5 C 110.5,-0.5 124.5,-0.5 138.5,-0.5C 140.751,2.75757 143.417,5.75757 146.5,8.5C 144.641,11.0186 142.641,11.0186 140.5,8.5C 140.167,8.83333 139.833,9.16667 139.5,9.5C 142.054,11.7081 144.554,14.0414 147,16.5C 148.481,19.11 149.648,21.7766 150.5,24.5C 148.692,24.5086 147.025,24.0086 145.5,23C 142.941,20.897 140.274,19.0637 137.5,17.5C 134.19,14.1744 130.857,14.1744 127.5,17.5C 127.709,18.086 128.043,18.586 128.5,19C 125.338,19.4455 122.338,18.9455 119.5,17.5C 119.815,15.7741 119.981,14.1075 120,12.5C 117.763,13.0563 115.763,14.0563 114,15.5C 113.167,14.6667 112.333,13.8333 111.5,13C 113.219,11.9431 115.053,11.1097 117,10.5C 117.749,9.36495 117.583,8.36495 116.5,7.5C 114.547,6.97564 112.88,5.97564 111.5,4.5C 110.914,4.70931 110.414,5.04265 110,5.5C 109.71,3.95594 109.044,2.62261 108,1.5C 107.667,2.16667 107.333,2.83333 107,3.5C 104.175,1.81219 101.009,0.978861 97.5,1C 96.944,0.617425 96.6107,0.117425 96.5,-0.5 Z"/></g>
<g><path style="opacity:1" fill="#a9d0d5" d="M 1.5,-0.5 C 4.83333,-0.5 8.16667,-0.5 11.5,-0.5C 10.5,0.833333 9.5,2.16667 8.5,3.5C 6.92558,3.93709 5.75891,4.93709 5,6.5C 4.27543,8.94938 3.27543,11.2827 2,13.5C 1.50085,8.8452 1.33418,4.17853 1.5,-0.5 Z"/></g>
<g><path style="opacity:1" fill="#8db2bb" d="M 64.5,-0.5 C 75.1667,-0.5 85.8333,-0.5 96.5,-0.5C 96.6107,0.117425 96.944,0.617425 97.5,1C 101.009,0.978861 104.175,1.81219 107,3.5C 107.333,2.83333 107.667,2.16667 108,1.5C 109.044,2.62261 109.71,3.95594 110,5.5C 110.414,5.04265 110.914,4.70931 111.5,4.5C 112.88,5.97564 114.547,6.97564 116.5,7.5C 117.583,8.36495 117.749,9.36495 117,10.5C 115.053,11.1097 113.219,11.9431 111.5,13C 112.333,13.8333 113.167,14.6667 114,15.5C 115.763,14.0563 117.763,13.0563 120,12.5C 119.981,14.1075 119.815,15.7741 119.5,17.5C 122.338,18.9455 125.338,19.4455 128.5,19C 128.043,18.586 127.709,18.086 127.5,17.5C 130.857,14.1744 134.19,14.1744 137.5,17.5C 135.1,16.0728 134.433,16.5728 135.5,19C 140.956,21.9739 145.956,25.4739 150.5,29.5C 148.5,28.8333 146.5,28.1667 144.5,27.5C 143.737,26.7321 142.737,26.2321 141.5,26C 112.169,25.5 82.8352,25.3334 53.5,25.5C 58.9851,24.6728 64.6518,24.1728 70.5,24C 70.0426,23.586 69.7093,23.086 69.5,22.5C 75.8379,19.3621 76.8379,15.8621 72.5,12C 73.448,11.5172 74.448,11.3505 75.5,11.5C 75.281,10.325 75.6143,9.32496 76.5,8.5C 78.6198,9.87151 79.6198,9.20485 79.5,6.5C 80.552,6.64945 81.552,6.48278 82.5,6C 78.177,2.22123 73.3436,0.721227 68,1.5C 66.6976,0.915201 65.531,0.248534 64.5,-0.5 Z"/></g>
<g><path style="opacity:1" fill="#5b895e" d="M 167.5,-0.5 C 169.5,-0.5 171.5,-0.5 173.5,-0.5C 173.5,1.83333 173.5,4.16667 173.5,6.5C 172.539,8.26465 172.205,10.2646 172.5,12.5C 171.5,12.5 170.5,12.5 169.5,12.5C 167.817,8.3694 167.15,4.03607 167.5,-0.5 Z"/></g>
<g><path style="opacity:1" fill="#6e921c" d="M 173.5,-0.5 C 174.833,-0.5 176.167,-0.5 177.5,-0.5C 177.929,6.94723 177.429,14.2806 176,21.5C 174.597,16.6173 173.764,11.6173 173.5,6.5C 173.5,4.16667 173.5,1.83333 173.5,-0.5 Z"/></g>
<g><path style="opacity:1" fill="#74a98b" d="M 0.5,-0.5 C 0.833333,-0.5 1.16667,-0.5 1.5,-0.5C 1.33418,4.17853 1.50085,8.8452 2,13.5C 3.27543,11.2827 4.27543,8.94938 5,6.5C 5.75891,4.93709 6.92558,3.93709 8.5,3.5C 5.37451,8.41652 3.37451,13.7499 2.5,19.5C 0.541117,13.2504 -0.12555,6.5837 0.5,-0.5 Z"/></g>
<g><path style="opacity:1" fill="#a0c5c7" d="M 13.5,-0.5 C 21.5,-0.5 29.5,-0.5 37.5,-0.5C 38.6085,0.28997 39.9419,0.78997 41.5,1C 43.3939,2.10113 44.0606,3.43446 43.5,5C 40.5757,6.29766 38.2423,8.29766 36.5,11C 35.3507,12.7297 35.3507,14.3963 36.5,16C 35.5509,16.6172 34.7175,16.4506 34,15.5C 33.0551,19.469 30.7218,20.8023 27,19.5C 25.8118,20.5634 25.3118,21.8967 25.5,23.5C 28.5176,23.2962 31.5176,22.9629 34.5,22.5C 12.1552,32.9859 9.48851,28.9859 26.5,10.5C 29.0934,9.24645 31.4268,7.57978 33.5,5.5C 29.1096,5.17161 24.7763,6.00494 20.5,8C 14.7885,10.5433 10.1218,14.3767 6.5,19.5C 5.33524,16.4648 5.50191,13.4648 7,10.5C 8.68582,6.44806 10.8525,2.78139 13.5,-0.5 Z"/></g>
<g><path style="opacity:1" fill="#76a291" d="M 149.5,-0.5 C 154.5,-0.5 159.5,-0.5 164.5,-0.5C 164.5,0.833333 164.5,2.16667 164.5,3.5C 164.666,8.51108 164.499,13.5111 164,18.5C 161.259,13.3999 158.926,8.0666 157,2.5C 155.844,1.00724 155.01,1.17391 154.5,3C 158.205,9.11275 160.539,15.7794 161.5,23C 161.167,23.8333 160.833,24.6667 160.5,25.5C 156.085,17.2869 152.419,8.62024 149.5,-0.5 Z"/></g>
<g><path style="opacity:1" fill="#59816e" d="M 187.5,-0.5 C 188.833,-0.5 190.167,-0.5 191.5,-0.5C 191.5,0.5 191.5,1.5 191.5,2.5C 189.723,9.25294 188.557,16.2529 188,23.5C 187.31,24.7383 186.81,24.7383 186.5,23.5C 186.344,15.4712 186.677,7.47123 187.5,-0.5 Z"/></g>
<g><path style="opacity:1" fill="#5a892b" d="M 11.5,-0.5 C 12.1667,-0.5 12.8333,-0.5 13.5,-0.5C 10.8525,2.78139 8.68582,6.44806 7,10.5C 5.50191,13.4648 5.33524,16.4648 6.5,19.5C 10.1218,14.3767 14.7885,10.5433 20.5,8C 24.7763,6.00494 29.1096,5.17161 33.5,5.5C 31.4268,7.57978 29.0934,9.24645 26.5,10.5C 25.7494,9.42654 24.7494,9.25988 23.5,10C 20.2726,14.0514 16.9392,17.8848 13.5,21.5C 11.0071,22.7967 8.3404,23.7967 5.5,24.5C 4.68156,21.8929 4.18156,19.2263 4,16.5C 3.76791,17.7375 3.26791,18.7375 2.5,19.5C 3.37451,13.7499 5.37451,8.41652 8.5,3.5C 9.5,2.16667 10.5,0.833333 11.5,-0.5 Z"/></g>
<g><path style="opacity:1" fill="#86b0a1" d="M 138.5,-0.5 C 141.167,-0.5 143.833,-0.5 146.5,-0.5C 151.008,10.4862 155.675,21.4862 160.5,32.5C 159.923,34.6297 158.923,34.463 157.5,32C 156.251,31.2599 155.251,31.4265 154.5,32.5C 153.128,31.4884 151.795,30.4884 150.5,29.5C 145.956,25.4739 140.956,21.9739 135.5,19C 134.433,16.5728 135.1,16.0728 137.5,17.5C 140.274,19.0637 142.941,20.897 145.5,23C 147.025,24.0086 148.692,24.5086 150.5,24.5C 149.648,21.7766 148.481,19.11 147,16.5C 144.554,14.0414 142.054,11.7081 139.5,9.5C 139.833,9.16667 140.167,8.83333 140.5,8.5C 142.641,11.0186 144.641,11.0186 146.5,8.5C 143.417,5.75757 140.751,2.75757 138.5,-0.5 Z"/></g>
<g><path style="opacity:1" fill="#3c6019" d="M 177.5,-0.5 C 178.5,-0.5 179.5,-0.5 180.5,-0.5C 181.285,4.75155 181.785,10.0849 182,15.5C 183.491,10.215 184.657,4.88162 185.5,-0.5C 186.167,-0.5 186.833,-0.5 187.5,-0.5C 186.677,7.47123 186.344,15.4712 186.5,23.5C 183.97,32.2134 183.137,41.2134 184,50.5C 184.23,54.4828 185.563,55.1494 188,52.5C 188.333,51.1667 188.667,49.8333 189,48.5C 189.498,51.8168 189.665,55.1501 189.5,58.5C 184.5,58.5 179.5,58.5 174.5,58.5C 173.835,52.523 173.502,46.523 173.5,40.5C 174.188,45.9292 175.521,51.2626 177.5,56.5C 178.496,50.5368 178.829,44.5368 178.5,38.5C 177.5,38.5 176.5,38.5 175.5,38.5C 175.905,34.9521 175.405,31.6188 174,28.5C 173.517,29.448 173.351,30.448 173.5,31.5C 171.068,25.5389 169.735,19.2056 169.5,12.5C 170.5,12.5 171.5,12.5 172.5,12.5C 172.205,10.2646 172.539,8.26465 173.5,6.5C 173.764,11.6173 174.597,16.6173 176,21.5C 177.429,14.2806 177.929,6.94723 177.5,-0.5 Z"/></g>
<g><path style="opacity:1" fill="#638e7a" d="M 180.5,-0.5 C 182.167,-0.5 183.833,-0.5 185.5,-0.5C 184.657,4.88162 183.491,10.215 182,15.5C 181.785,10.0849 181.285,4.75155 180.5,-0.5 Z"/></g>
<g><path style="opacity:1" fill="#22caea" d="M 96.5,26.5 C 89.9881,27.1666 83.3214,27.8333 76.5,28.5C 75.9747,29.1924 75.3081,29.6924 74.5,30C 74.8333,30.3333 75.1667,30.6667 75.5,31C 72.9109,32.1965 70.2442,33.1965 67.5,34C 65.8246,36.8189 63.4913,38.6522 60.5,39.5C 59.8333,39.5 59.5,39.1667 59.5,38.5C 57.2334,35.0238 56.5667,31.3571 57.5,27.5C 70.4921,26.917 83.4921,26.5837 96.5,26.5 Z"/></g>
<g><path style="opacity:1" fill="#628b1b" d="M 164.5,-0.5 C 165.5,-0.5 166.5,-0.5 167.5,-0.5C 167.15,4.03607 167.817,8.3694 169.5,12.5C 169.735,19.2056 171.068,25.5389 173.5,31.5C 173.5,34.5 173.5,37.5 173.5,40.5C 173.502,46.523 173.835,52.523 174.5,58.5C 171.167,58.5 167.833,58.5 164.5,58.5C 164.81,55.2869 164.477,52.2869 163.5,49.5C 163.5,48.5 163.5,47.5 163.5,46.5C 164.167,46.8333 164.833,47.1667 165.5,47.5C 166.748,46.6661 167.415,45.3328 167.5,43.5C 167.328,41.4523 166.995,39.4523 166.5,37.5C 165.897,26.0245 165.23,14.6912 164.5,3.5C 164.5,2.16667 164.5,0.833333 164.5,-0.5 Z"/></g>
<g><path style="opacity:1" fill="#6b954d" d="M 146.5,-0.5 C 147.5,-0.5 148.5,-0.5 149.5,-0.5C 152.419,8.62024 156.085,17.2869 160.5,25.5C 160.833,24.6667 161.167,23.8333 161.5,23C 160.539,15.7794 158.205,9.11275 154.5,3C 155.01,1.17391 155.844,1.00724 157,2.5C 158.926,8.0666 161.259,13.3999 164,18.5C 164.499,13.5111 164.666,8.51108 164.5,3.5C 165.23,14.6912 165.897,26.0245 166.5,37.5C 165.207,36.158 164.374,34.4913 164,32.5C 163.624,37.5818 164.124,42.5818 165.5,47.5C 164.833,47.1667 164.167,46.8333 163.5,46.5C 161.965,42.9473 159.965,39.614 157.5,36.5C 156.5,35.1667 155.5,33.8333 154.5,32.5C 155.251,31.4265 156.251,31.2599 157.5,32C 158.923,34.463 159.923,34.6297 160.5,32.5C 155.675,21.4862 151.008,10.4862 146.5,-0.5 Z"/></g>
<g><path style="opacity:1" fill="#27aedb" d="M 96.5,26.5 C 111.343,26.1707 126.01,26.504 140.5,27.5C 129.495,27.3335 118.495,27.5002 107.5,28C 110.244,29.3241 111.577,31.4908 111.5,34.5C 110.312,33.3157 109.145,33.3157 108,34.5C 106.76,37.412 105.094,40.0787 103,42.5C 102.51,43.7932 102.343,45.1266 102.5,46.5C 101.766,45.1225 101.099,43.6225 100.5,42C 97.1727,41.3897 93.8394,40.8897 90.5,40.5C 85.8589,39.843 84.5256,41.843 86.5,46.5C 85.4749,47.3739 84.8082,48.5405 84.5,50C 86.2205,52.8389 85.5538,54.8389 82.5,56C 83.5981,56.7697 83.5981,57.603 82.5,58.5C 77.6308,56.6492 73.2975,57.4826 69.5,61C 68.3333,61.1667 67.1667,61.3333 66,61.5C 62.4735,59.5205 58.6402,58.1871 54.5,57.5C 51.4415,57.5832 48.7748,58.5832 46.5,60.5C 46.3342,55.8215 46.5008,51.1548 47,46.5C 49.4981,43.3607 52.6647,41.694 56.5,41.5C 57.7942,42.2899 58.9609,43.2899 60,44.5C 60.6379,47.6009 61.8046,50.2676 63.5,52.5C 64.8094,55.4507 67.1427,56.7841 70.5,56.5C 69.4721,51.1004 67.3054,46.1004 64,41.5C 63.31,40.2617 62.81,40.2617 62.5,41.5C 61.5,41.1667 60.8333,40.5 60.5,39.5C 63.4913,38.6522 65.8246,36.8189 67.5,34C 70.2442,33.1965 72.9109,32.1965 75.5,31C 75.1667,30.6667 74.8333,30.3333 74.5,30C 75.3081,29.6924 75.9747,29.1924 76.5,28.5C 83.3214,27.8333 89.9881,27.1666 96.5,26.5 Z"/></g>
<g><path style="opacity:1" fill="#21a1dc" d="M 140.5,27.5 C 141.833,27.5 143.167,27.5 144.5,27.5C 146.5,28.1667 148.5,28.8333 150.5,29.5C 151.795,30.4884 153.128,31.4884 154.5,32.5C 155.5,33.8333 156.5,35.1667 157.5,36.5C 157.682,38.4913 157.182,40.4913 156,42.5C 153.498,41.8922 151.498,40.5589 150,38.5C 149.235,38.5699 148.735,38.9033 148.5,39.5C 143.125,35.3139 137.958,35.6473 133,40.5C 132.501,46.1569 132.334,51.8236 132.5,57.5C 129.408,50.2665 128.908,42.9332 131,35.5C 129.127,36.0891 127.46,35.4224 126,33.5C 121.32,35.7504 116.486,36.0838 111.5,34.5C 111.577,31.4908 110.244,29.3241 107.5,28C 118.495,27.5002 129.495,27.3335 140.5,27.5 Z"/></g>
<g><path style="opacity:1" fill="#467634" d="M 26.5,10.5 C 9.48851,28.9859 12.1552,32.9859 34.5,22.5C 36.8568,22.3367 39.1902,22.5034 41.5,23C 32.2245,25.0826 24.3912,29.5826 18,36.5C 17.51,37.7932 17.3433,39.1266 17.5,40.5C 21.6935,39.9685 25.6935,39.9685 29.5,40.5C 29.1667,41.1667 28.8333,41.8333 28.5,42.5C 25.2976,43.0468 22.2976,44.0468 19.5,45.5C 18.1667,45.5 16.8333,45.5 15.5,45.5C 14.448,45.6495 13.448,45.4828 12.5,45C 13.8009,43.3845 13.8009,41.8845 12.5,40.5C 15.4005,39.0723 16.0671,36.9056 14.5,34C 13.552,33.5172 12.552,33.3505 11.5,33.5C 12.0278,29.6982 13.3611,26.1982 15.5,23C 15.1639,21.9701 14.4972,21.4701 13.5,21.5C 16.9392,17.8848 20.2726,14.0514 23.5,10C 24.7494,9.25988 25.7494,9.42654 26.5,10.5 Z"/></g>
<g><path style="opacity:1" fill="#2b461a" d="M 173.5,40.5 C 173.5,37.5 173.5,34.5 173.5,31.5C 173.351,30.448 173.517,29.448 174,28.5C 175.405,31.6188 175.905,34.9521 175.5,38.5C 176.5,38.5 177.5,38.5 178.5,38.5C 178.829,44.5368 178.496,50.5368 177.5,56.5C 175.521,51.2626 174.188,45.9292 173.5,40.5 Z"/></g>
<g><path style="opacity:1" fill="#3ce0f1" d="M 53.5,25.5 C 82.8352,25.3334 112.169,25.5 141.5,26C 142.737,26.2321 143.737,26.7321 144.5,27.5C 143.167,27.5 141.833,27.5 140.5,27.5C 126.01,26.504 111.343,26.1707 96.5,26.5C 83.4921,26.5837 70.4921,26.917 57.5,27.5C 56.5667,31.3571 57.2334,35.0238 59.5,38.5C 49.8985,34.0502 43.0652,36.7169 39,46.5C 38.5005,52.4908 38.3338,58.4908 38.5,64.5C 37.6773,61.023 37.1773,57.3563 37,53.5C 36,52.1667 35,50.8333 34,49.5C 33,53.1667 31.3333,53.5 29,50.5C 27.6929,59.4483 27.1929,68.4483 27.5,77.5C 27.8257,85.6841 27.4924,93.6841 26.5,101.5C 26.5,84.8333 26.5,68.1667 26.5,51.5C 26.5,50.1667 26.5,48.8333 26.5,47.5C 27.4408,45.9505 28.1075,44.2838 28.5,42.5C 28.8333,41.8333 29.1667,41.1667 29.5,40.5C 34.9022,31.4597 42.9022,26.4597 53.5,25.5 Z"/></g>
<g><path style="opacity:1" fill="#638b1b" d="M 11.5,33.5 C 12.552,33.3505 13.552,33.5172 14.5,34C 16.0671,36.9056 15.4005,39.0723 12.5,40.5C 10.2511,44.2522 6.91772,45.4188 2.5,44C 1.49788,37.4778 4.49788,33.9778 11.5,33.5 Z"/></g>
<g><path style="opacity:1" fill="#73a387" d="M 166.5,37.5 C 166.995,39.4523 167.328,41.4523 167.5,43.5C 167.415,45.3328 166.748,46.6661 165.5,47.5C 164.124,42.5818 163.624,37.5818 164,32.5C 164.374,34.4913 165.207,36.158 166.5,37.5 Z"/></g>
<g><path style="opacity:1" fill="#7febf8" d="M 90.5,40.5 C 90.5,41.1667 90.8333,41.5 91.5,41.5C 91.6085,43.5138 90.9418,45.1805 89.5,46.5C 88.5,46.5 87.5,46.5 86.5,46.5C 84.5256,41.843 85.8589,39.843 90.5,40.5 Z"/></g>
<g><path style="opacity:1" fill="#dceeed" d="M 111.5,34.5 C 111.5,34.8333 111.5,35.1667 111.5,35.5C 112.5,37.5 113.5,39.5 114.5,41.5C 114.808,43.924 114.474,46.2573 113.5,48.5C 113.868,46.4935 113.368,44.4935 112,42.5C 110.759,40.5794 109.259,40.246 107.5,41.5C 105.314,44.6298 104.981,47.9631 106.5,51.5C 104.413,50.4154 103.08,48.7488 102.5,46.5C 102.343,45.1266 102.51,43.7932 103,42.5C 105.094,40.0787 106.76,37.412 108,34.5C 109.145,33.3157 110.312,33.3157 111.5,34.5 Z"/></g>
<g><path style="opacity:1" fill="#345c14" d="M -0.5,-0.5 C -0.166667,-0.5 0.166667,-0.5 0.5,-0.5C -0.12555,6.5837 0.541117,13.2504 2.5,19.5C 3.26791,18.7375 3.76791,17.7375 4,16.5C 4.18156,19.2263 4.68156,21.8929 5.5,24.5C 8.3404,23.7967 11.0071,22.7967 13.5,21.5C 14.4972,21.4701 15.1639,21.9701 15.5,23C 13.3611,26.1982 12.0278,29.6982 11.5,33.5C 4.49788,33.9778 1.49788,37.4778 2.5,44C 6.91772,45.4188 10.2511,44.2522 12.5,40.5C 13.8009,41.8845 13.8009,43.3845 12.5,45C 13.448,45.4828 14.448,45.6495 15.5,45.5C 14.4802,47.352 12.9802,48.6853 11,49.5C 7.22383,48.6058 3.3905,48.2725 -0.5,48.5C -0.5,32.1667 -0.5,15.8333 -0.5,-0.5 Z"/></g>
<g><path style="opacity:1" fill="#63948b" d="M 28.5,42.5 C 28.1075,44.2838 27.4408,45.9505 26.5,47.5C 24.4534,47.5111 22.4534,47.8444 20.5,48.5C 19.2867,48.2528 18.62,47.5862 18.5,46.5C 19.1667,46.5 19.5,46.1667 19.5,45.5C 22.2976,44.0468 25.2976,43.0468 28.5,42.5 Z"/></g>
<g><path style="opacity:1" fill="#38572f" d="M 191.5,2.5 C 191.5,12.8333 191.5,23.1667 191.5,33.5C 190.507,41.6499 190.174,49.9832 190.5,58.5C 190.167,58.5 189.833,58.5 189.5,58.5C 189.665,55.1501 189.498,51.8168 189,48.5C 188.667,49.8333 188.333,51.1667 188,52.5C 185.563,55.1494 184.23,54.4828 184,50.5C 183.137,41.2134 183.97,32.2134 186.5,23.5C 186.81,24.7383 187.31,24.7383 188,23.5C 188.557,16.2529 189.723,9.25294 191.5,2.5 Z"/></g>
<g><path style="opacity:1" fill="#0b4584" d="M 91.5,41.5 C 95.0926,42.4298 96.7593,44.7632 96.5,48.5C 93.6122,49.0102 91.2789,48.3435 89.5,46.5C 90.9418,45.1805 91.6085,43.5138 91.5,41.5 Z"/></g>
<g><path style="opacity:1" fill="#0a316c" d="M 111.5,35.5 C 112.822,35.33 113.989,35.6634 115,36.5C 115.922,39.9912 117.089,43.3245 118.5,46.5C 118.759,50.0681 120.759,51.4015 124.5,50.5C 124.5,49.1667 124.5,47.8333 124.5,46.5C 127.518,47.855 128.851,50.1884 128.5,53.5C 123.634,53.3568 118.967,54.0234 114.5,55.5C 111.174,55.9272 108.508,54.9272 106.5,52.5C 113.164,52.9998 116.331,49.9998 116,43.5C 115.722,42.5842 115.222,41.9175 114.5,41.5C 113.5,39.5 112.5,37.5 111.5,35.5 Z"/></g>
<g><path style="opacity:1" fill="#1d7bc3" d="M 157.5,36.5 C 159.965,39.614 161.965,42.9473 163.5,46.5C 163.5,47.5 163.5,48.5 163.5,49.5C 162.518,52.9619 162.185,56.6286 162.5,60.5C 160.5,60.1667 158.5,59.8333 156.5,59.5C 156.819,54.6367 156.486,49.97 155.5,45.5C 155.5,44.1667 154.833,43.5 153.5,43.5C 152.206,42.7101 151.039,41.7101 150,40.5C 149.601,40.7284 149.435,41.0618 149.5,41.5C 148.662,41.1583 148.328,40.4916 148.5,39.5C 148.735,38.9033 149.235,38.5699 150,38.5C 151.498,40.5589 153.498,41.8922 156,42.5C 157.182,40.4913 157.682,38.4913 157.5,36.5 Z"/></g>
<g><path style="opacity:1" fill="#0f2356" d="M 153.5,43.5 C 153.809,53.8857 153.476,64.219 152.5,74.5C 153.423,76.9242 154.923,78.9242 157,80.5C 159.115,92.5423 154.282,97.8756 142.5,96.5C 140.847,96.3404 139.514,95.6737 138.5,94.5C 149.081,94.3236 153.914,88.9903 153,78.5C 152.417,76.9984 151.584,75.6651 150.5,74.5C 149.501,63.5202 149.168,52.5202 149.5,41.5C 149.435,41.0618 149.601,40.7284 150,40.5C 151.039,41.7101 152.206,42.7101 153.5,43.5 Z"/></g>
<g><path style="opacity:1" fill="#0f4080" d="M 56.5,41.5 C 52.6647,41.694 49.4981,43.3607 47,46.5C 46.5008,51.1548 46.3342,55.8215 46.5,60.5C 45.032,61.7791 44.3653,63.4458 44.5,65.5C 47.3576,65.4046 49.6909,64.2379 51.5,62C 54.0385,61.2042 56.3718,61.3709 58.5,62.5C 57.3282,64.539 55.6616,65.8724 53.5,66.5C 50.8682,68.1134 48.2016,69.78 45.5,71.5C 44.5713,72.6888 44.238,74.0222 44.5,75.5C 48.3385,74.4826 51.8385,72.8159 55,70.5C 57.1829,70.5221 58.6829,71.5221 59.5,73.5C 56.9228,73.4551 54.9228,74.4551 53.5,76.5C 50.8682,78.1134 48.2016,79.78 45.5,81.5C 44.5713,82.6888 44.238,84.0222 44.5,85.5C 47.967,85.5543 50.6337,84.0543 52.5,81C 54.265,80.3603 55.9317,80.5269 57.5,81.5C 56.1938,82.4674 55.5271,83.8007 55.5,85.5C 52.3567,85.969 50.0233,87.6356 48.5,90.5C 46.2125,89.3813 44.3792,87.7147 43,85.5C 42.3333,72.1667 42.3333,58.8333 43,45.5C 46.4296,40.5908 50.9296,39.2575 56.5,41.5 Z"/></g>
<g><path style="opacity:1" fill="#578416" d="M 182.5,24.5 C 183.158,25.7933 183.492,27.2933 183.5,29C 182.434,38.4954 181.434,47.9954 180.5,57.5C 178.757,46.305 179.424,35.305 182.5,24.5 Z"/></g>
<g><path style="opacity:1" fill="#1b4176" d="M 63.5,52.5 C 64.9145,48.7865 64.5812,45.1198 62.5,41.5C 62.81,40.2617 63.31,40.2617 64,41.5C 67.3054,46.1004 69.4721,51.1004 70.5,56.5C 67.1427,56.7841 64.8094,55.4507 63.5,52.5 Z"/></g>
<g><path style="opacity:1" fill="#33622d" d="M 18.5,46.5 C 18.62,47.5862 19.2867,48.2528 20.5,48.5C 22.4534,47.8444 24.4534,47.5111 26.5,47.5C 26.5,48.8333 26.5,50.1667 26.5,51.5C 26.1667,51.5 25.8333,51.5 25.5,51.5C 21.8832,52.6417 18.5498,54.3084 15.5,56.5C 14.1667,56.5 12.8333,56.5 11.5,56.5C 11.2501,53.4955 12.5834,51.6622 15.5,51C 16.0527,49.1222 17.0527,47.6222 18.5,46.5 Z"/></g>
<g><path style="opacity:1" fill="#2a461f" d="M 15.5,45.5 C 16.8333,45.5 18.1667,45.5 19.5,45.5C 19.5,46.1667 19.1667,46.5 18.5,46.5C 17.0527,47.6222 16.0527,49.1222 15.5,51C 12.5834,51.6622 11.2501,53.4955 11.5,56.5C 12.8333,56.5 14.1667,56.5 15.5,56.5C 12.8712,59.6306 10.0379,62.6306 7,65.5C 6.20858,66.745 5.70858,68.0783 5.5,69.5C 3.5,69.5 1.5,69.5 -0.5,69.5C -0.5,62.5 -0.5,55.5 -0.5,48.5C 3.3905,48.2725 7.22383,48.6058 11,49.5C 12.9802,48.6853 14.4802,47.352 15.5,45.5 Z"/></g>
<g><path style="opacity:1" fill="#739894" d="M 25.5,51.5 C 17.9764,56.0176 11.6431,62.0176 6.5,69.5C 6.16667,69.5 5.83333,69.5 5.5,69.5C 5.70858,68.0783 6.20858,66.745 7,65.5C 10.0379,62.6306 12.8712,59.6306 15.5,56.5C 18.5498,54.3084 21.8832,52.6417 25.5,51.5 Z"/></g>
<g><path style="opacity:1" fill="#2790cc" d="M 132.5,57.5 C 132.822,63.358 132.489,69.0247 131.5,74.5C 131.666,70.1539 131.499,65.8206 131,61.5C 129.549,59.5359 127.716,58.2026 125.5,57.5C 122.259,55.8612 119.592,56.6945 117.5,60C 115.801,60.9581 113.967,61.4581 112,61.5C 108.474,59.5205 104.64,58.1871 100.5,57.5C 96.79,59.0067 92.9567,60.34 89,61.5C 86.2884,61.6088 84.1217,60.6088 82.5,58.5C 83.5981,57.603 83.5981,56.7697 82.5,56C 85.5538,54.8389 86.2205,52.8389 84.5,50C 84.8082,48.5405 85.4749,47.3739 86.5,46.5C 87.5,46.5 88.5,46.5 89.5,46.5C 91.2789,48.3435 93.6122,49.0102 96.5,48.5C 96.7593,44.7632 95.0926,42.4298 91.5,41.5C 90.8333,41.5 90.5,41.1667 90.5,40.5C 93.8394,40.8897 97.1727,41.3897 100.5,42C 101.099,43.6225 101.766,45.1225 102.5,46.5C 103.08,48.7488 104.413,50.4154 106.5,51.5C 106.5,51.8333 106.5,52.1667 106.5,52.5C 108.508,54.9272 111.174,55.9272 114.5,55.5C 118.967,54.0234 123.634,53.3568 128.5,53.5C 128.851,50.1884 127.518,47.855 124.5,46.5C 122.5,45.1667 120.5,45.1667 118.5,46.5C 117.089,43.3245 115.922,39.9912 115,36.5C 113.989,35.6634 112.822,35.33 111.5,35.5C 111.5,35.1667 111.5,34.8333 111.5,34.5C 116.486,36.0838 121.32,35.7504 126,33.5C 127.46,35.4224 129.127,36.0891 131,35.5C 128.908,42.9332 129.408,50.2665 132.5,57.5 Z"/></g>
<g><path style="opacity:1" fill="#7ecbe4" d="M 114.5,41.5 C 115.222,41.9175 115.722,42.5842 116,43.5C 116.331,49.9998 113.164,52.9998 106.5,52.5C 106.5,52.1667 106.5,51.8333 106.5,51.5C 104.981,47.9631 105.314,44.6298 107.5,41.5C 109.259,40.246 110.759,40.5794 112,42.5C 113.368,44.4935 113.868,46.4935 113.5,48.5C 114.474,46.2573 114.808,43.924 114.5,41.5 Z"/></g>
<g><path style="opacity:1" fill="#d8e1da" d="M 124.5,46.5 C 124.5,47.8333 124.5,49.1667 124.5,50.5C 120.759,51.4015 118.759,50.0681 118.5,46.5C 120.5,45.1667 122.5,45.1667 124.5,46.5 Z"/></g>
<g><path style="opacity:1" fill="#e4ece6" d="M 59.5,38.5 C 59.5,39.1667 59.8333,39.5 60.5,39.5C 60.8333,40.5 61.5,41.1667 62.5,41.5C 64.5812,45.1198 64.9145,48.7865 63.5,52.5C 61.8046,50.2676 60.6379,47.6009 60,44.5C 58.9609,43.2899 57.7942,42.2899 56.5,41.5C 50.9296,39.2575 46.4296,40.5908 43,45.5C 42.3333,58.8333 42.3333,72.1667 43,85.5C 44.3792,87.7147 46.2125,89.3813 48.5,90.5C 55.5988,91.8099 62.5988,91.8099 69.5,90.5C 69.8333,90.5 70.1667,90.5 70.5,90.5C 77.932,91.811 85.2653,91.811 92.5,90.5C 92.8333,90.5 93.1667,90.5 93.5,90.5C 100.266,91.8086 106.932,91.8086 113.5,90.5C 118.291,89.3764 120.958,86.3764 121.5,81.5C 121.5,79.8333 121.5,78.1667 121.5,76.5C 121.5,74.8333 121.5,73.1667 121.5,71.5C 121.5,69.8333 121.5,68.1667 121.5,66.5C 121.66,64.8008 121.494,63.1341 121,61.5C 119.362,63.7337 117.195,65.067 114.5,65.5C 110.567,66.1426 107.234,65.1426 104.5,62.5C 102.262,61.4634 99.9291,61.2967 97.5,62C 95.9366,63.9473 93.9366,65.114 91.5,65.5C 87.5669,66.1426 84.2336,65.1426 81.5,62.5C 79.2625,61.4634 76.9291,61.2967 74.5,62C 73.1537,63.6692 71.487,64.8358 69.5,65.5C 65.3344,66.0561 61.6677,65.0561 58.5,62.5C 56.3718,61.3709 54.0385,61.2042 51.5,62C 49.6909,64.2379 47.3576,65.4046 44.5,65.5C 44.3653,63.4458 45.032,61.7791 46.5,60.5C 48.7748,58.5832 51.4415,57.5832 54.5,57.5C 58.6402,58.1871 62.4735,59.5205 66,61.5C 67.1667,61.3333 68.3333,61.1667 69.5,61C 73.2975,57.4826 77.6308,56.6492 82.5,58.5C 84.1217,60.6088 86.2884,61.6088 89,61.5C 92.9567,60.34 96.79,59.0067 100.5,57.5C 104.64,58.1871 108.474,59.5205 112,61.5C 113.967,61.4581 115.801,60.9581 117.5,60C 119.592,56.6945 122.259,55.8612 125.5,57.5C 125.666,67.1724 125.5,76.8391 125,86.5C 122.865,90.4742 119.699,93.1408 115.5,94.5C 92.8309,94.6666 70.1642,94.5 47.5,94C 42.3868,91.3823 39.3868,87.2156 38.5,81.5C 38.5,75.8333 38.5,70.1667 38.5,64.5C 38.3338,58.4908 38.5005,52.4908 39,46.5C 43.0652,36.7169 49.8985,34.0502 59.5,38.5 Z"/></g>
<g><path style="opacity:1" fill="#2bb8e3" d="M 38.5,64.5 C 38.5,70.1667 38.5,75.8333 38.5,81.5C 37.5416,81.0472 36.7083,80.3805 36,79.5C 35.7105,77.0481 35.0438,74.7148 34,72.5C 32.108,71.87 30.4413,70.87 29,69.5C 28.8171,72.3647 28.3171,75.0314 27.5,77.5C 27.1929,68.4483 27.6929,59.4483 29,50.5C 31.3333,53.5 33,53.1667 34,49.5C 35,50.8333 36,52.1667 37,53.5C 37.1773,57.3563 37.6773,61.023 38.5,64.5 Z"/></g>
<g><path style="opacity:1" fill="#e7eee7" d="M 148.5,39.5 C 148.328,40.4916 148.662,41.1583 149.5,41.5C 149.168,52.5202 149.501,63.5202 150.5,74.5C 151.584,75.6651 152.417,76.9984 153,78.5C 153.914,88.9903 149.081,94.3236 138.5,94.5C 136.028,93.0911 133.695,91.4244 131.5,89.5C 131.068,88.2905 130.401,87.2905 129.5,86.5C 128.99,82.1869 129.657,78.1869 131.5,74.5C 132.489,69.0247 132.822,63.358 132.5,57.5C 132.334,51.8236 132.501,46.1569 133,40.5C 137.958,35.6473 143.125,35.3139 148.5,39.5 Z"/></g>
<g><path style="opacity:1" fill="#51acda" d="M 145.5,42.5 C 146.434,43.5676 146.768,44.901 146.5,46.5C 144.5,46.5 142.5,46.5 140.5,46.5C 141.919,45.5489 143.585,45.2155 145.5,45.5C 145.5,44.5 145.5,43.5 145.5,42.5 Z"/></g>
<g><path style="opacity:1" fill="#29447f" d="M 145.5,42.5 C 145.5,43.5 145.5,44.5 145.5,45.5C 143.585,45.2155 141.919,45.5489 140.5,46.5C 140.5,47.5 140.5,48.5 140.5,49.5C 142.5,49.5 144.5,49.5 146.5,49.5C 146.5,50.5 146.5,51.5 146.5,52.5C 144.5,52.5 142.5,52.5 140.5,52.5C 140.5,53.5 140.5,54.5 140.5,55.5C 142.5,55.5 144.5,55.5 146.5,55.5C 146.334,62.5079 146.5,69.5079 147,76.5C 151.075,82.263 149.909,86.763 143.5,90C 133.332,89.5 130.499,84.6666 135,75.5C 135.333,64.5 135.667,53.5 136,42.5C 139.294,38.5266 142.46,38.5266 145.5,42.5 Z"/></g>
<g><path style="opacity:1" fill="#ff0743" d="M 139.5,57.5 C 139.167,57.5 138.833,57.5 138.5,57.5C 137.672,63.3193 137.172,69.3193 137,75.5C 136.333,64.8333 136.333,54.1667 137,43.5C 136.978,48.4651 137.812,53.1318 139.5,57.5 Z"/></g>
<g><path style="opacity:1" fill="#08377b" d="M 81.5,62.5 C 80.3282,64.539 78.6616,65.8724 76.5,66.5C 74.9382,66.7329 73.6049,67.3995 72.5,68.5C 69.9272,68.8515 67.5938,68.3515 65.5,67C 67.0581,66.79 68.3915,66.29 69.5,65.5C 71.487,64.8358 73.1537,63.6692 74.5,62C 76.9291,61.2967 79.2625,61.4634 81.5,62.5 Z"/></g>
<g><path style="opacity:1" fill="#5fecfa" d="M 138.5,57.5 C 138.833,57.5 139.167,57.5 139.5,57.5C 141.948,57.0101 143.615,57.8434 144.5,60C 143.566,65.7849 143.232,71.6182 143.5,77.5C 140.833,78.5 138.167,79.5 135.5,80.5C 135.685,78.8042 136.519,77.4709 138,76.5C 138.5,70.1754 138.666,63.8421 138.5,57.5 Z"/></g>
<g><path style="opacity:1" fill="#2689c5" d="M 58.5,62.5 C 61.6677,65.0561 65.3344,66.0561 69.5,65.5C 68.3915,66.29 67.0581,66.79 65.5,67C 67.5938,68.3515 69.9272,68.8515 72.5,68.5C 67.5131,72.7325 62.8465,72.2325 58.5,67C 56.8659,66.5065 55.1992,66.3398 53.5,66.5C 55.6616,65.8724 57.3282,64.539 58.5,62.5 Z"/></g>
<g><path style="opacity:1" fill="#0d2c69" d="M 121.5,66.5 C 120.167,67.1667 118.833,67.8333 117.5,68.5C 114.729,68.5793 112.063,68.0793 109.5,67C 111.382,66.8019 113.048,66.3019 114.5,65.5C 117.195,65.067 119.362,63.7337 121,61.5C 121.494,63.1341 121.66,64.8008 121.5,66.5 Z"/></g>
<g><path style="opacity:1" fill="#2566ac" d="M 155.5,45.5 C 156.486,49.97 156.819,54.6367 156.5,59.5C 158.5,59.8333 160.5,60.1667 162.5,60.5C 162.185,56.6286 162.518,52.9619 163.5,49.5C 164.477,52.2869 164.81,55.2869 164.5,58.5C 164.5,58.8333 164.5,59.1667 164.5,59.5C 164.5,78.1667 164.5,96.8333 164.5,115.5C 164.5,116.167 164.5,116.833 164.5,117.5C 164.827,126.682 164.493,135.682 163.5,144.5C 163.5,133.833 163.5,123.167 163.5,112.5C 163.831,104.14 163.498,95.8068 162.5,87.5C 160.6,84.0659 158.434,80.7326 156,77.5C 155.5,66.8385 155.333,56.1719 155.5,45.5 Z"/></g>
<g><path style="opacity:1" fill="#0c3374" d="M 104.5,62.5 C 103.328,64.539 101.662,65.8724 99.5,66.5C 97.9382,66.7329 96.6049,67.3995 95.5,68.5C 92.6802,68.7525 90.0135,68.2525 87.5,67C 89.0581,66.79 90.3915,66.29 91.5,65.5C 93.9366,65.114 95.9366,63.9473 97.5,62C 99.9291,61.2967 102.262,61.4634 104.5,62.5 Z"/></g>
<g><path style="opacity:1" fill="#277dc0" d="M 81.5,62.5 C 84.2336,65.1426 87.5669,66.1426 91.5,65.5C 90.3915,66.29 89.0581,66.79 87.5,67C 90.0135,68.2525 92.6802,68.7525 95.5,68.5C 90.5131,72.7325 85.8465,72.2325 81.5,67C 79.8659,66.5065 78.1992,66.3398 76.5,66.5C 78.6616,65.8724 80.3282,64.539 81.5,62.5 Z"/></g>
<g><path style="opacity:1" fill="#2069b0" d="M 104.5,62.5 C 107.234,65.1426 110.567,66.1426 114.5,65.5C 113.048,66.3019 111.382,66.8019 109.5,67C 112.063,68.0793 114.729,68.5793 117.5,68.5C 112.916,72.636 108.582,72.136 104.5,67C 102.866,66.5065 101.199,66.3398 99.5,66.5C 101.662,65.8724 103.328,64.539 104.5,62.5 Z"/></g>
<g><path style="opacity:1" fill="#b8c9c8" d="M 164.5,59.5 C 164.5,59.1667 164.5,58.8333 164.5,58.5C 167.833,58.5 171.167,58.5 174.5,58.5C 179.5,58.5 184.5,58.5 189.5,58.5C 189.833,58.5 190.167,58.5 190.5,58.5C 190.539,59.7562 190.039,60.7562 189,61.5C 187.378,78.2082 185.378,94.8748 183,111.5C 182.52,113.133 181.687,114.466 180.5,115.5C 178.973,115.427 177.973,116.094 177.5,117.5C 173.167,117.5 168.833,117.5 164.5,117.5C 164.5,116.833 164.5,116.167 164.5,115.5C 165.833,115.5 167.167,115.5 168.5,115.5C 174.105,116.901 177.605,114.901 179,109.5C 180.797,104.339 181.797,99.0053 182,93.5C 182.584,83.4945 183.25,73.4945 184,63.5C 184.374,62.5838 184.874,61.7504 185.5,61C 181.974,59.6632 178.308,59.1632 174.5,59.5C 171.167,59.5 167.833,59.5 164.5,59.5 Z"/></g>
<g><path style="opacity:1" fill="#7af5f9" d="M 53.5,66.5 C 55.1992,66.3398 56.8659,66.5065 58.5,67C 62.8465,72.2325 67.5131,72.7325 72.5,68.5C 73.6049,67.3995 74.9382,66.7329 76.5,66.5C 78.1992,66.3398 79.8659,66.5065 81.5,67C 85.8465,72.2325 90.5131,72.7325 95.5,68.5C 96.6049,67.3995 97.9382,66.7329 99.5,66.5C 101.199,66.3398 102.866,66.5065 104.5,67C 108.582,72.136 112.916,72.636 117.5,68.5C 118.833,67.8333 120.167,67.1667 121.5,66.5C 121.5,68.1667 121.5,69.8333 121.5,71.5C 120.128,72.5116 118.795,73.5116 117.5,74.5C 113.316,76.0438 109.316,75.7104 105.5,73.5C 104.359,71.7573 102.692,70.7573 100.5,70.5C 98.2113,71.4651 96.2113,72.7984 94.5,74.5C 89.7392,76.2491 85.4059,75.5824 81.5,72.5C 80.5039,71.3349 79.1705,70.6682 77.5,70.5C 74.8397,72.1569 72.1731,73.8236 69.5,75.5C 65.9153,75.8476 62.582,75.181 59.5,73.5C 58.6829,71.5221 57.1829,70.5221 55,70.5C 51.8385,72.8159 48.3385,74.4826 44.5,75.5C 44.238,74.0222 44.5713,72.6888 45.5,71.5C 48.2016,69.78 50.8682,68.1134 53.5,66.5 Z"/></g>
<g><path style="opacity:1" fill="#08357d" d="M 81.5,72.5 C 80.0451,74.1343 78.3784,75.4676 76.5,76.5C 74.9382,76.7329 73.6049,77.3995 72.5,78.5C 70.0108,78.7022 67.6775,78.2022 65.5,77C 67.0581,76.79 68.3915,76.29 69.5,75.5C 72.1731,73.8236 74.8397,72.1569 77.5,70.5C 79.1705,70.6682 80.5039,71.3349 81.5,72.5 Z"/></g>
<g><path style="opacity:1" fill="#072e73" d="M 105.5,73.5 C 103.5,74.5 101.5,75.5 99.5,76.5C 97.9382,76.7329 96.6049,77.3995 95.5,78.5C 93.0108,78.7022 90.6775,78.2022 88.5,77C 90.9739,76.9633 92.9739,76.13 94.5,74.5C 96.2113,72.7984 98.2113,71.4651 100.5,70.5C 102.692,70.7573 104.359,71.7573 105.5,73.5 Z"/></g>
<g><path style="opacity:1" fill="#0a2a6b" d="M 121.5,71.5 C 121.5,73.1667 121.5,74.8333 121.5,76.5C 119.999,77.7515 118.332,78.7515 116.5,79.5C 114.337,78.5309 112.004,77.6976 109.5,77C 111.833,76.6667 114.167,76.3333 116.5,76C 117.056,75.6174 117.389,75.1174 117.5,74.5C 118.795,73.5116 120.128,72.5116 121.5,71.5 Z"/></g>
<g><path style="opacity:1" fill="#e2ebe8" d="M 164.5,59.5 C 167.833,59.5 171.167,59.5 174.5,59.5C 175.398,60.1577 176.398,60.8243 177.5,61.5C 175.186,68.2943 173.852,75.2943 173.5,82.5C 174.046,89.127 174.379,95.7937 174.5,102.5C 173.281,107.266 171.281,111.599 168.5,115.5C 167.167,115.5 165.833,115.5 164.5,115.5C 164.5,96.8333 164.5,78.1667 164.5,59.5 Z"/></g>
<g><path style="opacity:1" fill="#84aeb8" d="M 14.5,71.5 C 17.5,71.5 20.5,71.5 23.5,71.5C 23.7581,82.3756 23.0915,93.0423 21.5,103.5C 21.5,93.1667 21.5,82.8333 21.5,72.5C 18.1667,72.5 14.8333,72.5 11.5,72.5C 11.2308,74.4286 11.7308,76.0953 13,77.5C 13.1808,86.7444 13.6808,95.911 14.5,105C 12.956,109.876 9.95602,113.542 5.5,116C 12.4921,116.5 19.4921,116.666 26.5,116.5C 26.5,116.833 26.5,117.167 26.5,117.5C 26.1667,117.5 25.8333,117.5 25.5,117.5C 16.8333,117.5 8.16667,117.5 -0.5,117.5C -0.5,116.833 -0.5,116.167 -0.5,115.5C 1.22917,114.883 2.72917,113.883 4,112.5C 5.2989,109.853 6.63223,107.186 8,104.5C 9.71608,93.9067 10.5494,83.24 10.5,72.5C 11.5676,71.5655 12.901,71.2322 14.5,71.5 Z"/></g>
<g><path style="opacity:1" fill="#156ab5" d="M 81.5,72.5 C 85.4059,75.5824 89.7392,76.2491 94.5,74.5C 92.9739,76.13 90.9739,76.9633 88.5,77C 90.6775,78.2022 93.0108,78.7022 95.5,78.5C 90.5131,82.7325 85.8465,82.2325 81.5,77C 79.8659,76.5065 78.1992,76.3398 76.5,76.5C 78.3784,75.4676 80.0451,74.1343 81.5,72.5 Z"/></g>
<g><path style="opacity:1" fill="#125eae" d="M 105.5,73.5 C 109.316,75.7104 113.316,76.0438 117.5,74.5C 117.389,75.1174 117.056,75.6174 116.5,76C 114.167,76.3333 111.833,76.6667 109.5,77C 112.004,77.6976 114.337,78.5309 116.5,79.5C 111.982,82.4637 107.982,81.6304 104.5,77C 102.866,76.5065 101.199,76.3398 99.5,76.5C 101.5,75.5 103.5,74.5 105.5,73.5 Z"/></g>
<g><path style="opacity:1" fill="#1777bf" d="M 59.5,73.5 C 62.582,75.181 65.9153,75.8476 69.5,75.5C 68.3915,76.29 67.0581,76.79 65.5,77C 67.6775,78.2022 70.0108,78.7022 72.5,78.5C 67.5131,82.7325 62.8465,82.2325 58.5,77C 56.8659,76.5065 55.1992,76.3398 53.5,76.5C 54.9228,74.4551 56.9228,73.4551 59.5,73.5 Z"/></g>
<g><path style="opacity:1" fill="#c6d3d1" d="M -0.5,69.5 C 1.5,69.5 3.5,69.5 5.5,69.5C 5.83333,69.5 6.16667,69.5 6.5,69.5C 9.69805,68.9644 12.3647,69.631 14.5,71.5C 12.901,71.2322 11.5676,71.5655 10.5,72.5C 8.83333,72.5 7.16667,72.5 5.5,72.5C 4.78355,81.4747 4.28355,90.4747 4,99.5C 2.78979,102.541 1.28979,105.208 -0.5,107.5C -0.5,94.8333 -0.5,82.1667 -0.5,69.5 Z"/></g>
<g><path style="opacity:1" fill="#2accf0" d="M 143.5,77.5 C 145.027,77.427 146.027,78.0937 146.5,79.5C 146.769,81.4286 146.269,83.0953 145,84.5C 144.586,84.0426 144.086,83.7093 143.5,83.5C 141.026,84.3195 138.693,85.3195 136.5,86.5C 134.539,84.68 134.206,82.68 135.5,80.5C 138.167,79.5 140.833,78.5 143.5,77.5 Z"/></g>
<g><path style="opacity:1" fill="#cdd9d6" d="M 174.5,59.5 C 178.308,59.1632 181.974,59.6632 185.5,61C 184.874,61.7504 184.374,62.5838 184,63.5C 183.25,73.4945 182.584,83.4945 182,93.5C 181.797,99.0053 180.797,104.339 179,109.5C 177.605,114.901 174.105,116.901 168.5,115.5C 171.281,111.599 173.281,107.266 174.5,102.5C 174.379,95.7937 174.046,89.127 173.5,82.5C 173.852,75.2943 175.186,68.2943 177.5,61.5C 176.398,60.8243 175.398,60.1577 174.5,59.5 Z"/></g>
<g><path style="opacity:1" fill="#70f1f9" d="M 53.5,76.5 C 55.1992,76.3398 56.8659,76.5065 58.5,77C 62.8465,82.2325 67.5131,82.7325 72.5,78.5C 73.6049,77.3995 74.9382,76.7329 76.5,76.5C 78.1992,76.3398 79.8659,76.5065 81.5,77C 85.8465,82.2325 90.5131,82.7325 95.5,78.5C 96.6049,77.3995 97.9382,76.7329 99.5,76.5C 101.199,76.3398 102.866,76.5065 104.5,77C 107.982,81.6304 111.982,82.4637 116.5,79.5C 118.332,78.7515 119.999,77.7515 121.5,76.5C 121.5,78.1667 121.5,79.8333 121.5,81.5C 118.854,84.074 115.687,85.7406 112,86.5C 108.057,84.7266 104.223,82.7266 100.5,80.5C 98.0565,81.7669 95.7231,83.2669 93.5,85C 89.0186,86.112 85.0186,85.2787 81.5,82.5C 79.9894,80.5589 77.9894,80.0589 75.5,81C 73.7885,83.5193 71.4552,85.0193 68.5,85.5C 63.9494,86.3417 60.2827,85.0083 57.5,81.5C 55.9317,80.5269 54.265,80.3603 52.5,81C 50.6337,84.0543 47.967,85.5543 44.5,85.5C 44.238,84.0222 44.5713,82.6888 45.5,81.5C 48.2016,79.78 50.8682,78.1134 53.5,76.5 Z"/></g>
<g><path style="opacity:1" fill="#0f3172" d="M 125.5,57.5 C 127.716,58.2026 129.549,59.5359 131,61.5C 131.499,65.8206 131.666,70.1539 131.5,74.5C 129.657,78.1869 128.99,82.1869 129.5,86.5C 130.044,91.6232 128.044,95.1232 123.5,97C 99.5154,96.6337 75.5154,96.4671 51.5,96.5C 72.2639,95.8228 93.5972,95.1561 115.5,94.5C 119.699,93.1408 122.865,90.4742 125,86.5C 125.5,76.8391 125.666,67.1724 125.5,57.5 Z"/></g>
<g><path style="opacity:1" fill="#1da3e2" d="M 146.5,79.5 C 148.313,84.5242 146.479,87.5242 141,88.5C 139.124,88.4753 137.624,87.8086 136.5,86.5C 138.693,85.3195 141.026,84.3195 143.5,83.5C 144.086,83.7093 144.586,84.0426 145,84.5C 146.269,83.0953 146.769,81.4286 146.5,79.5 Z"/></g>
<g><path style="opacity:1" fill="#1972ca" d="M 57.5,81.5 C 60.2827,85.0083 63.9494,86.3417 68.5,85.5C 68.0825,86.2216 67.4158,86.7216 66.5,87C 68.0249,88.0086 69.6916,88.5086 71.5,88.5C 71.1667,89.1667 70.8333,89.8333 70.5,90.5C 70.1667,90.5 69.8333,90.5 69.5,90.5C 63.1579,90.6662 56.8246,90.4995 50.5,90C 52.108,87.391 54.4413,86.0577 57.5,86C 56.9056,85.5357 56.2389,85.369 55.5,85.5C 55.5271,83.8007 56.1938,82.4674 57.5,81.5 Z"/></g>
<g><path style="opacity:1" fill="#0f4494" d="M 121.5,81.5 C 120.958,86.3764 118.291,89.3764 113.5,90.5C 111.5,90.5 109.5,90.5 107.5,90.5C 106.167,88.5 104.5,86.8333 102.5,85.5C 98.3104,85.0225 95.3104,86.6892 93.5,90.5C 93.1667,90.5 92.8333,90.5 92.5,90.5C 90.1667,90.5 87.8333,90.5 85.5,90.5C 84.1394,88.4727 82.4727,86.806 80.5,85.5C 80.5569,84.391 80.8902,83.391 81.5,82.5C 85.0186,85.2787 89.0186,86.112 93.5,85C 95.7231,83.2669 98.0565,81.7669 100.5,80.5C 104.223,82.7266 108.057,84.7266 112,86.5C 115.687,85.7406 118.854,84.074 121.5,81.5 Z"/></g>
<g><path style="opacity:1" fill="#093179" d="M 81.5,82.5 C 80.8902,83.391 80.5569,84.391 80.5,85.5C 78.5853,85.2155 76.9187,85.5489 75.5,86.5C 73.9382,86.7329 72.6049,87.3995 71.5,88.5C 69.6916,88.5086 68.0249,88.0086 66.5,87C 67.4158,86.7216 68.0825,86.2216 68.5,85.5C 71.4552,85.0193 73.7885,83.5193 75.5,81C 77.9894,80.0589 79.9894,80.5589 81.5,82.5 Z"/></g>
<g><path style="opacity:1" fill="#a3bec3" d="M 10.5,72.5 C 10.5494,83.24 9.71608,93.9067 8,104.5C 6.63223,107.186 5.2989,109.853 4,112.5C 2.72917,113.883 1.22917,114.883 -0.5,115.5C -0.5,112.833 -0.5,110.167 -0.5,107.5C 1.28979,105.208 2.78979,102.541 4,99.5C 4.28355,90.4747 4.78355,81.4747 5.5,72.5C 7.16667,72.5 8.83333,72.5 10.5,72.5 Z"/></g>
<g><path style="opacity:1" fill="#659aaa" d="M 21.5,103.5 C 20.7337,105.684 20.0671,108.018 19.5,110.5C 21.7427,111.474 24.076,111.808 26.5,111.5C 26.5,113.167 26.5,114.833 26.5,116.5C 19.4921,116.666 12.4921,116.5 5.5,116C 9.95602,113.542 12.956,109.876 14.5,105C 13.6808,95.911 13.1808,86.7444 13,77.5C 11.7308,76.0953 11.2308,74.4286 11.5,72.5C 14.8333,72.5 18.1667,72.5 21.5,72.5C 21.5,82.8333 21.5,93.1667 21.5,103.5 Z"/></g>
<g><path style="opacity:1" fill="#80bae4" d="M 102.5,85.5 C 99.6569,85.9953 97.3235,87.4953 95.5,90C 99.4862,90.4988 103.486,90.6655 107.5,90.5C 109.5,90.5 111.5,90.5 113.5,90.5C 106.932,91.8086 100.266,91.8086 93.5,90.5C 95.3104,86.6892 98.3104,85.0225 102.5,85.5 Z"/></g>
<g><path style="opacity:1" fill="#1d83e5" d="M 102.5,85.5 C 104.5,86.8333 106.167,88.5 107.5,90.5C 103.486,90.6655 99.4862,90.4988 95.5,90C 97.3235,87.4953 99.6569,85.9953 102.5,85.5 Z"/></g>
<g><path style="opacity:1" fill="#2084e1" d="M 80.5,85.5 C 82.4727,86.806 84.1394,88.4727 85.5,90.5C 81.1539,90.6657 76.8206,90.499 72.5,90C 73.7101,88.9609 74.7101,87.7942 75.5,86.5C 76.9187,85.5489 78.5853,85.2155 80.5,85.5 Z"/></g>
<g><path style="opacity:1" fill="#84b7e3" d="M 55.5,85.5 C 56.2389,85.369 56.9056,85.5357 57.5,86C 54.4413,86.0577 52.108,87.391 50.5,90C 56.8246,90.4995 63.1579,90.6662 69.5,90.5C 62.5988,91.8099 55.5988,91.8099 48.5,90.5C 50.0233,87.6356 52.3567,85.969 55.5,85.5 Z"/></g>
<g><path style="opacity:1" fill="#8abae3" d="M 75.5,86.5 C 74.7101,87.7942 73.7101,88.9609 72.5,90C 76.8206,90.499 81.1539,90.6657 85.5,90.5C 87.8333,90.5 90.1667,90.5 92.5,90.5C 85.2653,91.811 77.932,91.811 70.5,90.5C 70.8333,89.8333 71.1667,89.1667 71.5,88.5C 72.6049,87.3995 73.9382,86.7329 75.5,86.5 Z"/></g>
<g><path style="opacity:1" fill="#1a4488" d="M 153.5,43.5 C 154.833,43.5 155.5,44.1667 155.5,45.5C 155.333,56.1719 155.5,66.8385 156,77.5C 158.434,80.7326 160.6,84.0659 162.5,87.5C 163.498,95.8068 163.831,104.14 163.5,112.5C 162.691,114.292 162.191,116.292 162,118.5C 159.029,114.362 155.529,110.695 151.5,107.5C 150.527,105.861 149.194,104.527 147.5,103.5C 147.611,102.883 147.944,102.383 148.5,102C 146.237,100.383 144.237,98.5497 142.5,96.5C 154.282,97.8756 159.115,92.5423 157,80.5C 154.923,78.9242 153.423,76.9242 152.5,74.5C 153.476,64.219 153.809,53.8857 153.5,43.5 Z"/></g>
<g><path style="opacity:1" fill="#a5c9d1" d="M 25.5,51.5 C 25.8333,51.5 26.1667,51.5 26.5,51.5C 26.5,68.1667 26.5,84.8333 26.5,101.5C 26.5,104.833 26.5,108.167 26.5,111.5C 24.076,111.808 21.7427,111.474 19.5,110.5C 20.0671,108.018 20.7337,105.684 21.5,103.5C 23.0915,93.0423 23.7581,82.3756 23.5,71.5C 20.5,71.5 17.5,71.5 14.5,71.5C 12.3647,69.631 9.69805,68.9644 6.5,69.5C 11.6431,62.0176 17.9764,56.0176 25.5,51.5 Z"/></g>
<g><path style="opacity:1" fill="#2e87c3" d="M 38.5,81.5 C 39.3868,87.2156 42.3868,91.3823 47.5,94C 70.1642,94.5 92.8309,94.6666 115.5,94.5C 93.5972,95.1561 72.2639,95.8228 51.5,96.5C 52.4006,98.7271 54.0672,99.7271 56.5,99.5C 56.5,99.8333 56.5,100.167 56.5,100.5C 50.374,99.4671 45.0406,100.967 40.5,105C 39.5119,107.167 38.1786,109 36.5,110.5C 38.5011,102.844 35.8344,99.844 28.5,101.5C 27.5884,115.808 27.2551,130.142 27.5,144.5C 26.5067,135.682 26.1734,126.682 26.5,117.5C 26.5,117.167 26.5,116.833 26.5,116.5C 26.5,114.833 26.5,113.167 26.5,111.5C 26.5,108.167 26.5,104.833 26.5,101.5C 27.4924,93.6841 27.8257,85.6841 27.5,77.5C 28.3171,75.0314 28.8171,72.3647 29,69.5C 30.4413,70.87 32.108,71.87 34,72.5C 35.0438,74.7148 35.7105,77.0481 36,79.5C 36.7083,80.3805 37.5416,81.0472 38.5,81.5 Z"/></g>
<g><path style="opacity:1" fill="#2260ac" d="M 131.5,89.5 C 133.695,91.4244 136.028,93.0911 138.5,94.5C 139.514,95.6737 140.847,96.3404 142.5,96.5C 144.237,98.5497 146.237,100.383 148.5,102C 147.944,102.383 147.611,102.883 147.5,103.5C 138.546,98.4184 130.712,99.7517 124,107.5C 121.994,110.536 121.16,113.869 121.5,117.5C 120.036,116.595 118.702,116.595 117.5,117.5C 117.5,116.5 117.5,115.5 117.5,114.5C 117.281,110.777 116.948,107.277 116.5,104C 117.449,103.383 118.282,103.549 119,104.5C 120.579,102.959 122.413,101.792 124.5,101C 126,98.1667 128.167,96 131,94.5C 130.904,92.6194 131.071,90.9527 131.5,89.5 Z"/></g>
<g><path style="opacity:1" fill="#99b3b9" d="M 191.5,33.5 C 191.5,61.5 191.5,89.5 191.5,117.5C 187.587,117.813 183.921,117.147 180.5,115.5C 181.687,114.466 182.52,113.133 183,111.5C 185.378,94.8748 187.378,78.2082 189,61.5C 190.039,60.7562 190.539,59.7562 190.5,58.5C 190.174,49.9832 190.507,41.6499 191.5,33.5 Z"/></g>
<g><path style="opacity:1" fill="#216ab1" d="M 56.5,100.5 C 56.5,100.167 56.5,99.8333 56.5,99.5C 72.2031,98.8493 87.5364,99.5159 102.5,101.5C 92.7797,98.1424 85.2797,100.809 80,109.5C 79.5017,112.817 79.335,116.15 79.5,119.5C 79.1667,119.5 78.8333,119.5 78.5,119.5C 78.5983,116.752 77.5983,116.086 75.5,117.5C 75.7148,115.821 75.0481,114.821 73.5,114.5C 70.8001,112.954 68.9668,110.621 68,107.5C 67.31,106.262 66.81,106.262 66.5,107.5C 63.6983,104.358 60.365,102.025 56.5,100.5 Z"/></g>
<g><path style="opacity:1" fill="#174b94" d="M 129.5,86.5 C 130.401,87.2905 131.068,88.2905 131.5,89.5C 131.071,90.9527 130.904,92.6194 131,94.5C 128.167,96 126,98.1667 124.5,101C 122.413,101.792 120.579,102.959 119,104.5C 118.282,103.549 117.449,103.383 116.5,104C 116.948,107.277 117.281,110.777 117.5,114.5C 116.5,114.5 115.5,114.5 114.5,114.5C 113.588,112.405 112.421,110.405 111,108.5C 110.31,107.262 109.81,107.262 109.5,108.5C 107.5,105.833 105.167,103.5 102.5,101.5C 87.5364,99.5159 72.2031,98.8493 56.5,99.5C 54.0672,99.7271 52.4006,98.7271 51.5,96.5C 75.5154,96.4671 99.5154,96.6337 123.5,97C 128.044,95.1232 130.044,91.6232 129.5,86.5 Z"/></g>
<g><path style="opacity:1" fill="#76dbe7" d="M 73.5,114.5 C 75.0481,114.821 75.7148,115.821 75.5,117.5C 74.4583,118.791 73.2917,118.791 72,117.5C 71.4153,116.002 71.9153,115.002 73.5,114.5 Z"/></g>
<g><path style="opacity:1" fill="#73d7e4" d="M 114.5,114.5 C 115.5,114.5 116.5,114.5 117.5,114.5C 117.5,115.5 117.5,116.5 117.5,117.5C 114.248,118.915 113.248,117.915 114.5,114.5 Z"/></g>
<g><path style="opacity:1" fill="#8ac5d4" d="M 180.5,115.5 C 183.921,117.147 187.587,117.813 191.5,117.5C 191.5,130.167 191.5,142.833 191.5,155.5C 180.634,157.64 169.634,158.473 158.5,158C 159.252,157.329 159.586,156.496 159.5,155.5C 159.992,153.181 160.992,151.181 162.5,149.5C 162.721,152.097 163.221,152.097 164,149.5C 164.333,150.167 164.667,150.833 165,151.5C 165.804,150.196 166.971,149.529 168.5,149.5C 174.712,152.181 180.212,150.181 185,143.5C 185.027,140.089 185.194,136.756 185.5,133.5C 182.95,130.725 181.284,127.392 180.5,123.5C 181.24,121.106 182.907,119.606 185.5,119C 182.883,118.178 180.216,117.678 177.5,117.5C 177.973,116.094 178.973,115.427 180.5,115.5 Z"/></g>
<g><path style="opacity:1" fill="#d9e2e0" d="M 102.5,101.5 C 105.167,103.5 107.5,105.833 109.5,108.5C 113.547,124.073 107.547,132.407 91.5,133.5C 85.0249,131.02 81.0249,126.354 79.5,119.5C 79.335,116.15 79.5017,112.817 80,109.5C 85.2797,100.809 92.7797,98.1424 102.5,101.5 Z"/></g>
<g><path style="opacity:1" fill="#133c7b" d="M 89.5,104.5 C 102.271,102.442 108.105,107.776 107,120.5C 102.635,129.066 96.1352,131.233 87.5,127C 80.2991,118.657 80.9658,111.157 89.5,104.5 Z"/></g>
<g><path style="opacity:1" fill="#40cef3" d="M 96.5,109.5 C 96.5,111.167 96.5,112.833 96.5,114.5C 98.8333,114.5 101.167,114.5 103.5,114.5C 103.5,115.833 103.5,117.167 103.5,118.5C 101.167,118.5 98.8333,118.5 96.5,118.5C 96.5,120.833 96.5,123.167 96.5,125.5C 95.1779,125.67 94.0113,125.337 93,124.5C 92.5045,122.527 92.3379,120.527 92.5,118.5C 90.1667,118.5 87.8333,118.5 85.5,118.5C 85.2627,117.209 85.596,116.209 86.5,115.5C 86.369,116.239 86.5357,116.906 87,117.5C 89.7191,116.556 92.5525,116.223 95.5,116.5C 95.1984,113.941 95.5318,111.607 96.5,109.5 Z"/></g>
<g><path style="opacity:1" fill="#74eef8" d="M 96.5,109.5 C 95.5318,111.607 95.1984,113.941 95.5,116.5C 92.5525,116.223 89.7191,116.556 87,117.5C 86.5357,116.906 86.369,116.239 86.5,115.5C 88.2646,114.539 90.2646,114.205 92.5,114.5C 92.3379,112.473 92.5045,110.473 93,108.5C 94.7565,107.015 95.9232,107.348 96.5,109.5 Z"/></g>
<g><path style="opacity:1" fill="#dce3df" d="M 147.5,103.5 C 149.194,104.527 150.527,105.861 151.5,107.5C 156.045,118.716 153.045,127.049 142.5,132.5C 132.32,133.914 125.32,129.914 121.5,120.5C 121.5,119.5 121.5,118.5 121.5,117.5C 121.16,113.869 121.994,110.536 124,107.5C 130.712,99.7517 138.546,98.4184 147.5,103.5 Z"/></g>
<g><path style="opacity:1" fill="#dde6e2" d="M 147.5,115.5 C 147.5,116.5 147.5,117.5 147.5,118.5C 144.833,118.5 142.167,118.5 139.5,118.5C 139.5,121.167 139.5,123.833 139.5,126.5C 138.167,126.5 136.833,126.5 135.5,126.5C 135.5,123.833 135.5,121.167 135.5,118.5C 132.833,118.5 130.167,118.5 127.5,118.5C 127.157,116.517 127.824,115.183 129.5,114.5C 131.5,114.5 133.5,114.5 135.5,114.5C 135.5,111.833 135.5,109.167 135.5,106.5C 136.833,106.5 138.167,106.5 139.5,106.5C 139.5,109.167 139.5,111.833 139.5,114.5C 142.385,114.194 145.052,114.527 147.5,115.5 Z"/></g>
<g><path style="opacity:1" fill="#1a3976" d="M 149.5,119.5 C 149.771,117.62 149.104,116.287 147.5,115.5C 145.052,114.527 142.385,114.194 139.5,114.5C 139.5,111.833 139.5,109.167 139.5,106.5C 138.167,106.5 136.833,106.5 135.5,106.5C 135.5,109.167 135.5,111.833 135.5,114.5C 133.5,114.5 131.5,114.5 129.5,114.5C 133.347,112.127 133.347,109.794 129.5,107.5C 131.402,105.11 133.902,103.777 137,103.5C 146.79,104.833 150.956,110.166 149.5,119.5 Z"/></g>
<g><path style="opacity:1" fill="#122b5a" d="M 129.5,107.5 C 133.347,109.794 133.347,112.127 129.5,114.5C 127.824,115.183 127.157,116.517 127.5,118.5C 130.167,118.5 132.833,118.5 135.5,118.5C 135.5,121.167 135.5,123.833 135.5,126.5C 136.833,126.5 138.167,126.5 139.5,126.5C 139.5,123.833 139.5,121.167 139.5,118.5C 142.167,118.5 144.833,118.5 147.5,118.5C 147.5,117.5 147.5,116.5 147.5,115.5C 149.104,116.287 149.771,117.62 149.5,119.5C 145.93,128.968 139.596,131.468 130.5,127C 125.789,122.86 124.289,117.694 126,111.5C 126.66,109.676 127.827,108.343 129.5,107.5 Z"/></g>
<g><path style="opacity:1" fill="#274980" d="M 121.5,120.5 C 125.32,129.914 132.32,133.914 142.5,132.5C 139.695,133.319 136.695,133.819 133.5,134C 136.274,134.624 138.274,136.124 139.5,138.5C 138.5,138.5 137.5,138.5 136.5,138.5C 136.297,140.39 136.963,141.89 138.5,143C 137.584,143.278 136.918,143.778 136.5,144.5C 135.833,144.5 135.5,144.167 135.5,143.5C 134.709,138.087 132.709,137.42 129.5,141.5C 129.167,141.5 128.833,141.5 128.5,141.5C 128.714,139.856 128.38,138.356 127.5,137C 125.527,136.505 123.527,136.338 121.5,136.5C 121.5,139.167 121.5,141.833 121.5,144.5C 122.833,144.5 124.167,144.5 125.5,144.5C 124.737,145.268 123.737,145.768 122.5,146C 123.416,146.278 124.082,146.778 124.5,147.5C 123.041,147.433 121.708,147.766 120.5,148.5C 120.232,143.986 119.399,139.653 118,135.5C 117.785,140.915 117.285,146.248 116.5,151.5C 115.836,148.854 115.502,146.021 115.5,143C 116.624,135.866 117.29,128.699 117.5,121.5C 118.5,121.5 119.5,121.5 120.5,121.5C 121.167,121.5 121.5,121.167 121.5,120.5 Z"/></g>
<g><path style="opacity:1" fill="#9ccfda" d="M 164.5,117.5 C 168.833,117.5 173.167,117.5 177.5,117.5C 180.216,117.678 182.883,118.178 185.5,119C 182.907,119.606 181.24,121.106 180.5,123.5C 181.284,127.392 182.95,130.725 185.5,133.5C 185.194,136.756 185.027,140.089 185,143.5C 180.212,150.181 174.712,152.181 168.5,149.5C 166.971,149.529 165.804,150.196 165,151.5C 164.667,150.833 164.333,150.167 164,149.5C 163.221,152.097 162.721,152.097 162.5,149.5C 163.038,147.883 163.371,146.216 163.5,144.5C 164.493,135.682 164.827,126.682 164.5,117.5 Z"/></g>
<g><path style="opacity:1" fill="#dbe6e4" d="M 56.5,100.5 C 60.365,102.025 63.6983,104.358 66.5,107.5C 71.9148,123.993 65.9148,132.66 48.5,133.5C 39.0018,128.841 35.0018,121.175 36.5,110.5C 38.1786,109 39.5119,107.167 40.5,105C 45.0406,100.967 50.374,99.4671 56.5,100.5 Z"/></g>
<g><path style="opacity:1" fill="#a6b7c7" d="M 40.5,113.5 C 40.5,115.5 40.5,117.5 40.5,119.5C 42.8568,119.337 45.1902,119.503 47.5,120C 48.3802,121.356 48.7135,122.856 48.5,124.5C 45.8915,124.6 43.5582,123.933 41.5,122.5C 40.0598,121.054 39.3932,119.221 39.5,117C 39.5143,115.615 39.8476,114.449 40.5,113.5 Z"/></g>
<g><path style="opacity:1" fill="#51669f" d="M 60.5,119.5 C 58.5956,119.738 57.2623,120.738 56.5,122.5C 56.1667,122.5 55.8333,122.5 55.5,122.5C 56.0981,119.179 57.7647,118.179 60.5,119.5 Z"/></g>
<g><path style="opacity:1" fill="#4d5564" d="M 56.5,112.5 C 58.3464,112.222 59.6798,112.889 60.5,114.5C 59.3112,115.429 57.9778,115.762 56.5,115.5C 56.5,114.5 56.5,113.5 56.5,112.5 Z"/></g>
<g><path style="opacity:1" fill="#1f356f" d="M 59.5,106.5 C 58.0222,106.238 56.6888,106.571 55.5,107.5C 56.7914,108.527 56.7914,109.527 55.5,110.5C 54.5233,113.287 54.19,116.287 54.5,119.5C 52.712,119.215 51.0453,119.548 49.5,120.5C 51.0225,122.283 53.0225,122.949 55.5,122.5C 55.8333,122.5 56.1667,122.5 56.5,122.5C 57.6354,124.213 59.302,124.88 61.5,124.5C 61.3713,122.784 61.038,121.117 60.5,119.5C 62.4161,120.665 63.2494,122.332 63,124.5C 54.9894,131.757 47.8227,131.091 41.5,122.5C 43.5582,123.933 45.8915,124.6 48.5,124.5C 48.7135,122.856 48.3802,121.356 47.5,120C 45.1902,119.503 42.8568,119.337 40.5,119.5C 40.5,117.5 40.5,115.5 40.5,113.5C 42.7308,106.122 47.7308,102.955 55.5,104C 57.0664,104.608 58.3998,105.442 59.5,106.5 Z"/></g>
<g><path style="opacity:1" fill="#cbd2db" d="M 60.5,119.5 C 61.038,121.117 61.3713,122.784 61.5,124.5C 59.302,124.88 57.6354,124.213 56.5,122.5C 57.2623,120.738 58.5956,119.738 60.5,119.5 Z"/></g>
<g><path style="opacity:1" fill="#233262" d="M 60.5,110.5 C 62.1541,111.75 63.8207,113.084 65.5,114.5C 65.7989,116.604 65.4656,118.604 64.5,120.5C 64.0017,116.77 62.6684,113.437 60.5,110.5 Z"/></g>
<g><path style="opacity:1" fill="#3262b2" d="M 59.5,106.5 C 62.5577,108.243 64.5577,110.91 65.5,114.5C 63.8207,113.084 62.1541,111.75 60.5,110.5C 58.8333,110.5 57.1667,110.5 55.5,110.5C 56.7914,109.527 56.7914,108.527 55.5,107.5C 56.6888,106.571 58.0222,106.238 59.5,106.5 Z"/></g>
<g><path style="opacity:1" fill="#e4eae2" d="M 43.5,108.5 C 46.8333,108.5 50.1667,108.5 53.5,108.5C 53.5,111.5 53.5,114.5 53.5,117.5C 49.8333,117.5 46.1667,117.5 42.5,117.5C 42.2641,114.391 42.5975,111.391 43.5,108.5 Z"/></g>
<g><path style="opacity:1" fill="#132c64" d="M 73.5,114.5 C 71.9153,115.002 71.4153,116.002 72,117.5C 73.2917,118.791 74.4583,118.791 75.5,117.5C 77.5983,116.086 78.5983,116.752 78.5,119.5C 77.0813,120.451 75.4147,120.784 73.5,120.5C 73.8134,123.247 73.48,125.914 72.5,128.5C 66.2698,134.034 63.6031,141.034 64.5,149.5C 62.8716,150.853 61.5383,150.519 60.5,148.5C 61.8111,144.317 61.8111,139.984 60.5,135.5C 59.5481,137.045 59.2148,138.712 59.5,140.5C 57.8333,140.5 56.1667,140.5 54.5,140.5C 54.9227,138.219 54.256,136.552 52.5,135.5C 51.1667,134.833 49.8333,134.167 48.5,133.5C 65.9148,132.66 71.9148,123.993 66.5,107.5C 66.81,106.262 67.31,106.262 68,107.5C 68.9668,110.621 70.8001,112.954 73.5,114.5 Z"/></g>
<g><path style="opacity:1" fill="#d8dfe4" d="M 43.5,135.5 C 47.7464,134.761 50.413,136.427 51.5,140.5C 51.5858,141.496 51.2524,142.329 50.5,143C 48.8659,143.494 47.1992,143.66 45.5,143.5C 45.762,144.978 45.4287,146.311 44.5,147.5C 43.5091,143.555 43.1758,139.555 43.5,135.5 Z"/></g>
<g><path style="opacity:1" fill="#0f2658" d="M 114.5,114.5 C 113.248,117.915 114.248,118.915 117.5,117.5C 118.702,116.595 120.036,116.595 121.5,117.5C 121.5,118.5 121.5,119.5 121.5,120.5C 121.5,121.167 121.167,121.5 120.5,121.5C 119.432,120.566 118.099,120.232 116.5,120.5C 117.233,127.094 114.899,132.26 109.5,136C 110.598,136.77 110.598,137.603 109.5,138.5C 108.194,138.879 106.861,139.212 105.5,139.5C 106.33,141.135 106.497,142.802 106,144.5C 107.533,144.056 109.033,143.723 110.5,143.5C 109.193,142.135 109.193,140.802 110.5,139.5C 111.429,138.064 112.595,136.731 114,135.5C 114.499,140.489 114.666,145.489 114.5,150.5C 113.127,150.343 111.793,150.51 110.5,151C 111.833,153 111.833,155 110.5,157C 106.5,157.667 102.5,157.667 98.5,157C 100.058,156.79 101.391,156.29 102.5,155.5C 102.387,148.338 101.387,148.005 99.5,154.5C 98.8333,152.833 98.1667,151.167 97.5,149.5C 96.3058,151.516 96.3058,153.516 97.5,155.5C 95.9894,157.441 93.9894,157.941 91.5,157C 92.5,156.5 93.5,156 94.5,155.5C 95.8333,152.5 95.8333,149.5 94.5,146.5C 93.8302,148.291 93.1635,149.958 92.5,151.5C 91.2486,149.439 89.5819,149.106 87.5,150.5C 87.5951,152.215 87.9284,153.881 88.5,155.5C 88.9175,156.222 89.5842,156.722 90.5,157C 86.5138,157.499 82.5138,157.666 78.5,157.5C 79.0138,155.488 79.1805,153.488 79,151.5C 78.6667,151.833 78.3333,152.167 78,152.5C 77.6667,150.5 77.3333,148.5 77,146.5C 76.5014,150.152 76.3347,153.818 76.5,157.5C 74.901,157.768 73.5676,157.434 72.5,156.5C 74.3079,155.082 74.9746,153.082 74.5,150.5C 74.5,145.167 74.5,139.833 74.5,134.5C 75.9587,134.433 77.2921,134.766 78.5,135.5C 78.1826,138.572 78.5159,141.572 79.5,144.5C 80.2508,143.624 80.7508,142.624 81,141.5C 81.8333,142.5 82.6667,143.5 83.5,144.5C 83.5786,142.872 83.9119,141.205 84.5,139.5C 84.8333,139.5 85.1667,139.5 85.5,139.5C 85.0051,144.027 86.6718,145.361 90.5,143.5C 90.5,142.833 90.8333,142.5 91.5,142.5C 93.1137,144.075 95.1137,144.741 97.5,144.5C 97.8174,141.428 97.4841,138.428 96.5,135.5C 95.7025,135.957 95.3691,136.624 95.5,137.5C 94.596,136.791 94.2627,135.791 94.5,134.5C 92.4524,134.84 91.4524,134.507 91.5,133.5C 107.547,132.407 113.547,124.073 109.5,108.5C 109.81,107.262 110.31,107.262 111,108.5C 112.421,110.405 113.588,112.405 114.5,114.5 Z"/></g>
<g><path style="opacity:1" fill="#d0d8e1" d="M 78.5,135.5 C 82.2407,134.599 84.2407,135.932 84.5,139.5C 83.9119,141.205 83.5786,142.872 83.5,144.5C 82.6667,143.5 81.8333,142.5 81,141.5C 80.7508,142.624 80.2508,143.624 79.5,144.5C 78.5159,141.572 78.1826,138.572 78.5,135.5 Z"/></g>
<g><path style="opacity:1" fill="#addde3" d="M -0.5,117.5 C 8.16667,117.5 16.8333,117.5 25.5,117.5C 25.6664,126.506 25.4998,135.506 25,144.5C 24.2496,145.126 23.4162,145.626 22.5,146C 23.7054,148.234 23.0387,149.901 20.5,151C 22.497,152.153 22.8304,153.653 21.5,155.5C 21.0264,153.728 19.8597,152.061 18,150.5C 17.6924,151.308 17.1924,151.975 16.5,152.5C 15.3049,150.703 13.6382,149.703 11.5,149.5C 11.6495,148.448 11.4828,147.448 11,146.5C 6.50273,144.834 5.33606,141.834 7.5,137.5C 9.85684,137.663 12.1902,137.497 14.5,137C 12.6161,136.784 10.9494,136.117 9.5,135C 10.5,134.667 11.5,134.333 12.5,134C 9.00625,130.272 4.67292,128.772 -0.5,129.5C -0.5,125.5 -0.5,121.5 -0.5,117.5 Z"/></g>
<g><path style="opacity:1" fill="#17407d" d="M 78.5,119.5 C 78.8333,119.5 79.1667,119.5 79.5,119.5C 81.0249,126.354 85.0249,131.02 91.5,133.5C 91.4524,134.507 92.4524,134.84 94.5,134.5C 94.2627,135.791 94.596,136.791 95.5,137.5C 93.9197,139.805 91.9197,140.472 89.5,139.5C 88.2946,138.314 86.9613,138.314 85.5,139.5C 85.1667,139.5 84.8333,139.5 84.5,139.5C 84.2407,135.932 82.2407,134.599 78.5,135.5C 77.2921,134.766 75.9587,134.433 74.5,134.5C 72.5539,139.396 71.8872,144.729 72.5,150.5C 69.7938,150.425 67.1272,150.092 64.5,149.5C 63.6031,141.034 66.2698,134.034 72.5,128.5C 73.48,125.914 73.8134,123.247 73.5,120.5C 75.4147,120.784 77.0813,120.451 78.5,119.5 Z"/></g>
<g><path style="opacity:1" fill="#0d1852" d="M 80.5,137.5 C 82.337,137.639 82.6704,138.306 81.5,139.5C 80.7025,139.043 80.3691,138.376 80.5,137.5 Z"/></g>
<g><path style="opacity:1" fill="#255ea0" d="M 36.5,110.5 C 35.0018,121.175 39.0018,128.841 48.5,133.5C 49.8333,134.167 51.1667,134.833 52.5,135.5C 52.5,137.167 52.5,138.833 52.5,140.5C 52.1667,140.5 51.8333,140.5 51.5,140.5C 50.413,136.427 47.7464,134.761 43.5,135.5C 43.5858,134.504 43.2524,133.671 42.5,133C 39.6069,132.727 36.9403,131.893 34.5,130.5C 32.3741,130.73 30.7075,131.73 29.5,133.5C 28.5067,138.12 28.1734,142.786 28.5,147.5C 27.596,146.791 27.2627,145.791 27.5,144.5C 27.2551,130.142 27.5884,115.808 28.5,101.5C 35.8344,99.844 38.5011,102.844 36.5,110.5 Z"/></g>
<g><path style="opacity:1" fill="#021f69" d="M 45.5,138.5 C 46.5,138.5 47.5,138.5 48.5,138.5C 48.5,139.5 48.5,140.5 48.5,141.5C 47.5,141.5 46.5,141.5 45.5,141.5C 45.5,140.5 45.5,139.5 45.5,138.5 Z"/></g>
<g><path style="opacity:1" fill="#42abcd" d="M 74.5,134.5 C 74.5,139.833 74.5,145.167 74.5,150.5C 73.8333,150.5 73.1667,150.5 72.5,150.5C 71.8872,144.729 72.5539,139.396 74.5,134.5 Z"/></g>
<g><path style="opacity:1" fill="#ccd7df" d="M 91.5,142.5 C 90.4489,141.778 89.7822,140.778 89.5,139.5C 91.9197,140.472 93.9197,139.805 95.5,137.5C 95.3691,136.624 95.7025,135.957 96.5,135.5C 97.4841,138.428 97.8174,141.428 97.5,144.5C 95.1137,144.741 93.1137,144.075 91.5,142.5 Z"/></g>
<g><path style="opacity:1" fill="#cbd2db" d="M 99.5,138.5 C 104.159,138.015 105.492,139.848 103.5,144C 98.7282,144.81 97.3948,142.977 99.5,138.5 Z"/></g>
<g><path style="opacity:1" fill="#dde4ea" d="M 52.5,135.5 C 54.256,136.552 54.9227,138.219 54.5,140.5C 56.1667,140.5 57.8333,140.5 59.5,140.5C 59.2148,138.712 59.5481,137.045 60.5,135.5C 61.8111,139.984 61.8111,144.317 60.5,148.5C 59.5386,146.735 59.2053,144.735 59.5,142.5C 57.8333,142.5 56.1667,142.5 54.5,142.5C 54.7852,144.288 54.4519,145.955 53.5,147.5C 52.5258,145.257 52.1924,142.924 52.5,140.5C 52.5,138.833 52.5,137.167 52.5,135.5 Z"/></g>
<g><path style="opacity:1" fill="#d4dee7" d="M 89.5,139.5 C 87.8235,140.183 87.1568,141.517 87.5,143.5C 88.5,143.5 89.5,143.5 90.5,143.5C 86.6718,145.361 85.0051,144.027 85.5,139.5C 86.9613,138.314 88.2946,138.314 89.5,139.5 Z"/></g>
<g><path style="opacity:1" fill="#6b759f" d="M 89.5,139.5 C 89.7822,140.778 90.4489,141.778 91.5,142.5C 90.8333,142.5 90.5,142.833 90.5,143.5C 89.5,143.5 88.5,143.5 87.5,143.5C 87.1568,141.517 87.8235,140.183 89.5,139.5 Z"/></g>
<g><path style="opacity:1" fill="#1b1b54" d="M 93.5,140.5 C 95.4646,140.948 95.7979,141.948 94.5,143.5C 93.6143,142.675 93.281,141.675 93.5,140.5 Z"/></g>
<g><path style="opacity:1" fill="#0c183c" d="M 100.5,140.5 C 102.465,140.948 102.798,141.948 101.5,143.5C 100.614,142.675 100.281,141.675 100.5,140.5 Z"/></g>
<g><path style="opacity:1" fill="#c9cfd7" d="M 109.5,138.5 C 110.167,138.5 110.5,138.833 110.5,139.5C 109.193,140.802 109.193,142.135 110.5,143.5C 109.033,143.723 107.533,144.056 106,144.5C 106.497,142.802 106.33,141.135 105.5,139.5C 106.861,139.212 108.194,138.879 109.5,138.5 Z"/></g>
<g><path style="opacity:1" fill="#aee4eb" d="M 25.5,117.5 C 25.8333,117.5 26.1667,117.5 26.5,117.5C 26.1734,126.682 26.5067,135.682 27.5,144.5C 27.2627,145.791 27.596,146.791 28.5,147.5C 29.4919,153.49 32.4919,158.156 37.5,161.5C 40.9534,165.081 44.9534,167.748 49.5,169.5C 49.0825,170.222 48.4158,170.722 47.5,171C 31.4885,171.658 15.4885,171.491 -0.5,170.5C -0.5,156.833 -0.5,143.167 -0.5,129.5C 4.67292,128.772 9.00625,130.272 12.5,134C 11.5,134.333 10.5,134.667 9.5,135C 10.9494,136.117 12.6161,136.784 14.5,137C 12.1902,137.497 9.85684,137.663 7.5,137.5C 5.33606,141.834 6.50273,144.834 11,146.5C 11.4828,147.448 11.6495,148.448 11.5,149.5C 13.6382,149.703 15.3049,150.703 16.5,152.5C 17.1924,151.975 17.6924,151.308 18,150.5C 19.8597,152.061 21.0264,153.728 21.5,155.5C 22.8304,153.653 22.497,152.153 20.5,151C 23.0387,149.901 23.7054,148.234 22.5,146C 23.4162,145.626 24.2496,145.126 25,144.5C 25.4998,135.506 25.6664,126.506 25.5,117.5 Z"/></g>
<g><path style="opacity:1" fill="#1e3e73" d="M 43.5,135.5 C 43.1758,139.555 43.5091,143.555 44.5,147.5C 45.4287,146.311 45.762,144.978 45.5,143.5C 47.1992,143.66 48.8659,143.494 50.5,143C 51.2524,142.329 51.5858,141.496 51.5,140.5C 51.8333,140.5 52.1667,140.5 52.5,140.5C 52.1924,142.924 52.5258,145.257 53.5,147.5C 54.4519,145.955 54.7852,144.288 54.5,142.5C 56.1667,142.5 57.8333,142.5 59.5,142.5C 59.2053,144.735 59.5386,146.735 60.5,148.5C 61.5383,150.519 62.8716,150.853 64.5,149.5C 67.1272,150.092 69.7938,150.425 72.5,150.5C 73.1667,150.5 73.8333,150.5 74.5,150.5C 74.9746,153.082 74.3079,155.082 72.5,156.5C 72.2653,152.243 70.2653,150.91 66.5,152.5C 65.5481,154.045 65.2148,155.712 65.5,157.5C 62.4302,157.801 59.5968,158.801 57,160.5C 55.0518,159.544 53.2185,159.211 51.5,159.5C 50.2813,160.646 48.9479,161.646 47.5,162.5C 48.2418,164.35 49.2418,165.016 50.5,164.5C 49.7573,165.182 49.0906,165.849 48.5,166.5C 44.6163,165.276 40.9497,163.609 37.5,161.5C 32.4919,158.156 29.4919,153.49 28.5,147.5C 28.1734,142.786 28.5067,138.12 29.5,133.5C 30.7075,131.73 32.3741,130.73 34.5,130.5C 36.9403,131.893 39.6069,132.727 42.5,133C 43.2524,133.671 43.5858,134.504 43.5,135.5 Z"/></g>
<g><path style="opacity:1" fill="#1e3666" d="M 120.5,121.5 C 119.5,121.5 118.5,121.5 117.5,121.5C 117.29,128.699 116.624,135.866 115.5,143C 115.502,146.021 115.836,148.854 116.5,151.5C 116.752,158.264 113.752,160.931 107.5,159.5C 107.5,161.167 107.5,162.833 107.5,164.5C 105.738,164.643 104.071,164.309 102.5,163.5C 101.571,164.689 101.238,166.022 101.5,167.5C 113.167,167.5 124.833,167.5 136.5,167.5C 108.67,168.664 80.6697,168.83 52.5,168C 51.0993,167.59 49.766,167.09 48.5,166.5C 49.0906,165.849 49.7573,165.182 50.5,164.5C 49.2418,165.016 48.2418,164.35 47.5,162.5C 48.9479,161.646 50.2813,160.646 51.5,159.5C 53.2185,159.211 55.0518,159.544 57,160.5C 59.5968,158.801 62.4302,157.801 65.5,157.5C 65.2148,155.712 65.5481,154.045 66.5,152.5C 70.2653,150.91 72.2653,152.243 72.5,156.5C 73.5676,157.434 74.901,157.768 76.5,157.5C 76.3347,153.818 76.5014,150.152 77,146.5C 77.3333,148.5 77.6667,150.5 78,152.5C 78.3333,152.167 78.6667,151.833 79,151.5C 79.1805,153.488 79.0138,155.488 78.5,157.5C 82.5138,157.666 86.5138,157.499 90.5,157C 89.5842,156.722 88.9175,156.222 88.5,155.5C 89.8333,155.5 91.1667,155.5 92.5,155.5C 92.5,154.167 92.5,152.833 92.5,151.5C 93.1635,149.958 93.8302,148.291 94.5,146.5C 95.8333,149.5 95.8333,152.5 94.5,155.5C 93.5,156 92.5,156.5 91.5,157C 93.9894,157.941 95.9894,157.441 97.5,155.5C 99.1667,155.5 100.833,155.5 102.5,155.5C 101.391,156.29 100.058,156.79 98.5,157C 102.5,157.667 106.5,157.667 110.5,157C 111.833,155 111.833,153 110.5,151C 111.793,150.51 113.127,150.343 114.5,150.5C 114.666,145.489 114.499,140.489 114,135.5C 112.595,136.731 111.429,138.064 110.5,139.5C 110.5,138.833 110.167,138.5 109.5,138.5C 110.598,137.603 110.598,136.77 109.5,136C 114.899,132.26 117.233,127.094 116.5,120.5C 118.099,120.232 119.432,120.566 120.5,121.5 Z"/></g>
<g><path style="opacity:1" fill="#b5bece" d="M 104.5,149.5 C 110.116,150.401 110.783,152.734 106.5,156.5C 103.497,154.822 102.831,152.489 104.5,149.5 Z"/></g>
<g><path style="opacity:1" fill="#ccd9e0" d="M 102.5,155.5 C 100.833,155.5 99.1667,155.5 97.5,155.5C 96.3058,153.516 96.3058,151.516 97.5,149.5C 98.1667,151.167 98.8333,152.833 99.5,154.5C 101.387,148.005 102.387,148.338 102.5,155.5 Z"/></g>
<g><path style="opacity:1" fill="#b8bfcf" d="M 92.5,151.5 C 92.5,152.833 92.5,154.167 92.5,155.5C 91.1667,155.5 89.8333,155.5 88.5,155.5C 87.9284,153.881 87.5951,152.215 87.5,150.5C 89.5819,149.106 91.2486,149.439 92.5,151.5 Z"/></g>
<g><path style="opacity:1" fill="#d9dfe6" d="M 79.5,146.5 C 81.4095,147.975 82.5762,149.975 83,152.5C 83.8333,150.833 84.6667,149.167 85.5,147.5C 86.1667,146.167 86.8333,146.167 87.5,147.5C 84.0252,158.119 81.3585,157.786 79.5,146.5 Z"/></g>
<g><path style="opacity:1" fill="#55a8c5" d="M 159.5,155.5 C 159.586,156.496 159.252,157.329 158.5,158C 169.634,158.473 180.634,157.64 191.5,155.5C 191.5,157.167 191.5,158.833 191.5,160.5C 179.829,160.667 168.162,160.5 156.5,160C 157.252,159.329 157.586,158.496 157.5,157.5C 157.833,156.5 158.5,155.833 159.5,155.5 Z"/></g>
<g><path style="opacity:1" fill="#152955" d="M 151.5,107.5 C 155.529,110.695 159.029,114.362 162,118.5C 162.191,116.292 162.691,114.292 163.5,112.5C 163.5,123.167 163.5,133.833 163.5,144.5C 163.371,146.216 163.038,147.883 162.5,149.5C 160.992,151.181 159.992,153.181 159.5,155.5C 158.5,155.833 157.833,156.5 157.5,157.5C 155.353,159.737 153.02,161.737 150.5,163.5C 146.013,165.44 141.346,166.773 136.5,167.5C 124.833,167.5 113.167,167.5 101.5,167.5C 101.238,166.022 101.571,164.689 102.5,163.5C 104.071,164.309 105.738,164.643 107.5,164.5C 107.5,162.833 107.5,161.167 107.5,159.5C 113.752,160.931 116.752,158.264 116.5,151.5C 117.285,146.248 117.785,140.915 118,135.5C 119.399,139.653 120.232,143.986 120.5,148.5C 121.055,150.729 122.389,152.395 124.5,153.5C 123.284,154.096 121.951,154.263 120.5,154C 122.737,156.103 124.737,155.936 126.5,153.5C 125.5,151.833 124.167,150.5 122.5,149.5C 123.274,148.289 124.107,148.289 125,149.5C 125.692,148.563 125.525,147.897 124.5,147.5C 124.082,146.778 123.416,146.278 122.5,146C 123.737,145.768 124.737,145.268 125.5,144.5C 127.5,144.5 128.5,143.5 128.5,141.5C 128.833,141.5 129.167,141.5 129.5,141.5C 130.533,144.599 132.533,145.266 135.5,143.5C 135.5,144.167 135.833,144.5 136.5,144.5C 138.331,143.948 139.997,143.948 141.5,144.5C 142.833,142.5 142.833,140.5 141.5,138.5C 140.694,141.362 139.361,141.862 137.5,140C 138.416,139.722 139.082,139.222 139.5,138.5C 138.274,136.124 136.274,134.624 133.5,134C 136.695,133.819 139.695,133.319 142.5,132.5C 153.045,127.049 156.045,118.716 151.5,107.5 Z"/></g>
<g><path style="opacity:1" fill="#acb5c4" d="M 137.5,147.5 C 139.074,147.937 140.241,148.937 141,150.5C 142.049,149.483 143.216,149.316 144.5,150C 145.406,151.699 145.739,153.533 145.5,155.5C 142.728,154.629 140.062,154.629 137.5,155.5C 137.762,154.022 137.429,152.689 136.5,151.5C 136.094,152.557 136.094,153.891 136.5,155.5C 135.127,155.657 133.793,155.49 132.5,155C 133.167,154.667 133.833,154.333 134.5,154C 133.643,153.311 132.977,152.478 132.5,151.5C 134.363,150.311 136.03,148.978 137.5,147.5 Z"/></g>
<g><path style="opacity:1" fill="#c4cdd7" d="M 126.5,149.5 C 127.79,150.058 128.623,151.058 129,152.5C 131.107,148.485 131.773,148.818 131,153.5C 130.417,155.002 129.584,156.335 128.5,157.5C 128.573,154.874 127.906,152.208 126.5,149.5 Z"/></g>
<g><path style="opacity:1" fill="#d8dde6" d="M 124.5,147.5 C 125.525,147.897 125.692,148.563 125,149.5C 124.107,148.289 123.274,148.289 122.5,149.5C 124.167,150.5 125.5,151.833 126.5,153.5C 124.737,155.936 122.737,156.103 120.5,154C 121.951,154.263 123.284,154.096 124.5,153.5C 122.389,152.395 121.055,150.729 120.5,148.5C 121.708,147.766 123.041,147.433 124.5,147.5 Z"/></g>
<g><path style="opacity:1" fill="#d5dfe4" d="M 146.5,149.5 C 149.026,149.919 151.359,150.086 153.5,150C 154.576,151.726 154.743,153.559 154,155.5C 153,150.167 152,150.167 151,155.5C 150.091,150.27 148.925,150.27 147.5,155.5C 146.534,153.604 146.201,151.604 146.5,149.5 Z"/></g>
<g><path style="opacity:1" fill="#c0cad3" d="M 139.5,138.5 C 139.082,139.222 138.416,139.722 137.5,140C 139.361,141.862 140.694,141.362 141.5,138.5C 142.833,140.5 142.833,142.5 141.5,144.5C 139.997,143.948 138.331,143.948 136.5,144.5C 136.918,143.778 137.584,143.278 138.5,143C 136.963,141.89 136.297,140.39 136.5,138.5C 137.5,138.5 138.5,138.5 139.5,138.5 Z"/></g>
<g><path style="opacity:1" fill="#b1bfc7" d="M 150.5,138.5 C 151.978,138.238 153.311,138.571 154.5,139.5C 153.948,141.003 153.948,142.669 154.5,144.5C 153.167,144.5 151.833,144.5 150.5,144.5C 149.725,142.388 149.725,140.388 150.5,138.5 Z"/></g>
<g><path style="opacity:1" fill="#ced8dd" d="M 143.5,138.5 C 145.167,138.5 146.833,138.5 148.5,138.5C 148.662,140.527 148.495,142.527 148,144.5C 147.781,143.062 147.281,141.729 146.5,140.5C 145.833,142.167 145.167,143.833 144.5,145.5C 143.526,143.257 143.192,140.924 143.5,138.5 Z"/></g>
<g><path style="opacity:1" fill="#cad3dd" d="M 135.5,143.5 C 132.533,145.266 130.533,144.599 129.5,141.5C 132.709,137.42 134.709,138.087 135.5,143.5 Z"/></g>
<g><path style="opacity:1" fill="#18195f" d="M 131.5,140.5 C 133.465,140.948 133.798,141.948 132.5,143.5C 131.614,142.675 131.281,141.675 131.5,140.5 Z"/></g>
<g><path style="opacity:1" fill="#c7cfd7" d="M 128.5,141.5 C 128.5,143.5 127.5,144.5 125.5,144.5C 124.167,144.5 122.833,144.5 121.5,144.5C 121.5,141.833 121.5,139.167 121.5,136.5C 123.527,136.338 125.527,136.505 127.5,137C 128.38,138.356 128.714,139.856 128.5,141.5 Z"/></g>
<g><path style="opacity:1" fill="#0f1a58" d="M 123.5,138.5 C 125.346,138.222 126.68,138.889 127.5,140.5C 126.68,142.111 125.346,142.778 123.5,142.5C 123.5,141.167 123.5,139.833 123.5,138.5 Z"/></g>
<g><path style="opacity:1" fill="#a3aebd" d="M 140.5,135.5 C 142.337,135.639 142.67,136.306 141.5,137.5C 140.702,137.043 140.369,136.376 140.5,135.5 Z"/></g>
<g><path style="opacity:1" fill="#257aa5" d="M 157.5,157.5 C 157.586,158.496 157.252,159.329 156.5,160C 168.162,160.5 179.829,160.667 191.5,160.5C 191.5,161.833 191.5,163.167 191.5,164.5C 177.656,164.829 163.99,164.496 150.5,163.5C 153.02,161.737 155.353,159.737 157.5,157.5 Z"/></g>
<g><path style="opacity:1" fill="#215e8d" d="M 37.5,161.5 C 40.9497,163.609 44.6163,165.276 48.5,166.5C 49.766,167.09 51.0993,167.59 52.5,168C 80.6697,168.83 108.67,168.664 136.5,167.5C 141.346,166.773 146.013,165.44 150.5,163.5C 163.99,164.496 177.656,164.829 191.5,164.5C 191.5,165.167 191.5,165.833 191.5,166.5C 178.974,166.951 166.641,167.951 154.5,169.5C 122.5,169.5 90.5,169.5 58.5,169.5C 55.5,169.5 52.5,169.5 49.5,169.5C 44.9534,167.748 40.9534,165.081 37.5,161.5 Z"/></g>
<g><path style="opacity:1" fill="#5492ad" d="M 191.5,166.5 C 191.5,167.5 191.5,168.5 191.5,169.5C 180.5,169.5 169.5,169.5 158.5,169.5C 157.167,169.5 155.833,169.5 154.5,169.5C 166.641,167.951 178.974,166.951 191.5,166.5 Z"/></g>
<g><path style="opacity:1" fill="#a5d1da" d="M 49.5,169.5 C 52.5,169.5 55.5,169.5 58.5,169.5C 85.3474,170.054 106.347,170.721 121.5,171.5C 121.723,174.114 120.556,175.781 118,176.5C 114.404,174.899 111.071,175.232 108,177.5C 103.187,174.653 99.1871,175.32 96,179.5C 94.3333,178.833 92.6667,178.167 91,177.5C 88.1386,178.921 85.1386,179.921 82,180.5C 81.6012,180.272 81.4346,179.938 81.5,179.5C 79.4806,176.866 77.4806,177.033 75.5,180C 72.1454,180.546 68.8121,180.379 65.5,179.5C 63.4075,179.486 61.5741,180.152 60,181.5C 58.2151,180.76 56.3817,180.093 54.5,179.5C 52.7186,181.473 50.5519,182.807 48,183.5C 44.7975,182.69 41.6308,181.69 38.5,180.5C 38.3306,178.883 37.9972,177.216 37.5,175.5C 36.8076,176.025 36.3076,176.692 36,177.5C 35.6924,176.692 35.1924,176.025 34.5,175.5C 28.74,177.641 23.0733,179.975 17.5,182.5C 16.4104,183.391 16.4104,184.391 17.5,185.5C 17.1667,186.5 16.5,187.167 15.5,187.5C 12.3172,186.81 9.81716,185.144 8,182.5C 7.66667,182.833 7.33333,183.167 7,183.5C 4.56438,182.645 2.06438,181.979 -0.5,181.5C -0.5,177.833 -0.5,174.167 -0.5,170.5C 15.4885,171.491 31.4885,171.658 47.5,171C 48.4158,170.722 49.0825,170.222 49.5,169.5 Z"/></g>
<g><path style="opacity:1" fill="#9dcad3" d="M 58.5,169.5 C 90.5,169.5 122.5,169.5 154.5,169.5C 155.833,169.5 157.167,169.5 158.5,169.5C 167.658,170.33 176.991,170.83 186.5,171C 187.464,173.269 186.798,175.102 184.5,176.5C 183.707,176.069 182.873,175.735 182,175.5C 178.585,176.86 175.252,177.86 172,178.5C 170.667,177.833 169.667,176.833 169,175.5C 167.938,176.899 166.605,177.899 165,178.5C 160.552,177.616 156.218,177.283 152,177.5C 150.343,178.484 148.677,179.484 147,180.5C 145.093,180.579 143.093,180.246 141,179.5C 139.227,181.651 136.894,182.651 134,182.5C 129.762,180.61 125.762,181.61 122,185.5C 119.067,182.958 116.234,182.625 113.5,184.5C 110.921,183.026 108.921,183.693 107.5,186.5C 107.833,187.167 108.167,187.833 108.5,188.5C 105.724,189.515 103.057,190.515 100.5,191.5C 79.8333,191.5 59.1667,191.5 38.5,191.5C 38.3537,189.058 39.187,188.391 41,189.5C 41.3333,188.833 41.6667,188.167 42,187.5C 45.1228,189.821 48.1228,189.487 51,186.5C 54.4039,187.48 57.5705,187.48 60.5,186.5C 62.2855,188.922 63.9522,188.922 65.5,186.5C 66.8333,187.833 68.1667,187.833 69.5,186.5C 71.9367,188.576 74.6034,188.909 77.5,187.5C 75.4206,185.843 75.254,183.843 77,181.5C 78.1096,179.963 79.6096,179.297 81.5,179.5C 81.4346,179.938 81.6012,180.272 82,180.5C 85.1386,179.921 88.1386,178.921 91,177.5C 92.6667,178.167 94.3333,178.833 96,179.5C 99.1871,175.32 103.187,174.653 108,177.5C 111.071,175.232 114.404,174.899 118,176.5C 120.556,175.781 121.723,174.114 121.5,171.5C 106.347,170.721 85.3474,170.054 58.5,169.5 Z"/></g>
<g><path style="opacity:1" fill="#9fccd4" d="M 81.5,179.5 C 79.6096,179.297 78.1096,179.963 77,181.5C 75.254,183.843 75.4206,185.843 77.5,187.5C 74.6034,188.909 71.9367,188.576 69.5,186.5C 68.1667,187.833 66.8333,187.833 65.5,186.5C 63.9522,188.922 62.2855,188.922 60.5,186.5C 57.5705,187.48 54.4039,187.48 51,186.5C 48.1228,189.487 45.1228,189.821 42,187.5C 41.6667,188.167 41.3333,188.833 41,189.5C 39.187,188.391 38.3537,189.058 38.5,191.5C 25.5,191.5 12.5,191.5 -0.5,191.5C -0.5,188.167 -0.5,184.833 -0.5,181.5C 2.06438,181.979 4.56438,182.645 7,183.5C 7.33333,183.167 7.66667,182.833 8,182.5C 9.81716,185.144 12.3172,186.81 15.5,187.5C 16.5,187.167 17.1667,186.5 17.5,185.5C 16.4104,184.391 16.4104,183.391 17.5,182.5C 23.0733,179.975 28.74,177.641 34.5,175.5C 35.1924,176.025 35.6924,176.692 36,177.5C 36.3076,176.692 36.8076,176.025 37.5,175.5C 37.9972,177.216 38.3306,178.883 38.5,180.5C 41.6308,181.69 44.7975,182.69 48,183.5C 50.5519,182.807 52.7186,181.473 54.5,179.5C 56.3817,180.093 58.2151,180.76 60,181.5C 61.5741,180.152 63.4075,179.486 65.5,179.5C 68.8121,180.379 72.1454,180.546 75.5,180C 77.4806,177.033 79.4806,176.866 81.5,179.5 Z"/></g>
<g><path style="opacity:1" fill="#94c2cd" d="M 158.5,169.5 C 169.5,169.5 180.5,169.5 191.5,169.5C 191.5,176.833 191.5,184.167 191.5,191.5C 161.167,191.5 130.833,191.5 100.5,191.5C 103.057,190.515 105.724,189.515 108.5,188.5C 108.167,187.833 107.833,187.167 107.5,186.5C 108.921,183.693 110.921,183.026 113.5,184.5C 116.234,182.625 119.067,182.958 122,185.5C 125.762,181.61 129.762,180.61 134,182.5C 136.894,182.651 139.227,181.651 141,179.5C 143.093,180.246 145.093,180.579 147,180.5C 148.677,179.484 150.343,178.484 152,177.5C 156.218,177.283 160.552,177.616 165,178.5C 166.605,177.899 167.938,176.899 169,175.5C 169.667,176.833 170.667,177.833 172,178.5C 175.252,177.86 178.585,176.86 182,175.5C 182.873,175.735 183.707,176.069 184.5,176.5C 186.798,175.102 187.464,173.269 186.5,171C 176.991,170.83 167.658,170.33 158.5,169.5 Z"/></g>
</svg>
